<svg xmlns="http://www.w3.org/2000/svg" xmlns:xlink="http://www.w3.org/1999/xlink" viewBox="0 0 591.85 440.29"><defs><style>.cls-1{fill:#083868;stroke:#fff;stroke-miterlimit:11.34;stroke-width:1.39px;}.cls-12,.cls-17,.cls-2,.cls-20,.cls-6,.cls-9{stroke-miterlimit:10;}.cls-2{fill:url(#Dégradé_sans_nom_2);stroke:url(#Dégradé_sans_nom_5);}.cls-3{fill:url(#Dégradé_sans_nom_3);}.cls-4{fill:url(#Dégradé_sans_nom_4);}.cls-5{font-size:10.92px;fill:#fff;font-family:Lato-Black, Lato;font-weight:800;}.cls-6{fill:url(#Dégradé_sans_nom_2-2);stroke:url(#Dégradé_sans_nom_5-2);}.cls-7{fill:url(#Dégradé_sans_nom_3-2);}.cls-8{fill:url(#Dégradé_sans_nom_4-2);}.cls-9{fill:url(#Dégradé_sans_nom_2-3);stroke:url(#Dégradé_sans_nom_5-3);}.cls-10{fill:url(#Dégradé_sans_nom_3-3);}.cls-11{fill:url(#Dégradé_sans_nom_4-3);}.cls-12{fill:url(#Dégradé_sans_nom_2-4);stroke:url(#Dégradé_sans_nom_5-4);}.cls-13{fill:url(#Dégradé_sans_nom_3-4);}.cls-14{fill:url(#Dégradé_sans_nom_4-4);}.cls-15{letter-spacing:-0.02em;}.cls-16{letter-spacing:0em;}.cls-17{fill:url(#Dégradé_sans_nom_2-5);stroke:url(#Dégradé_sans_nom_5-5);}.cls-18{fill:url(#Dégradé_sans_nom_3-5);}.cls-19{fill:url(#Dégradé_sans_nom_4-5);}.cls-20{fill:url(#Dégradé_sans_nom_2-6);stroke:url(#Dégradé_sans_nom_5-6);}.cls-21{fill:url(#Dégradé_sans_nom_3-6);}.cls-22{fill:url(#Dégradé_sans_nom_4-6);}.cls-23{letter-spacing:2.81em;}</style><linearGradient id="Dégradé_sans_nom_2" x1="1096.5" y1="-3334.9" x2="1112.33" y2="-3341.29" gradientTransform="translate(-610.91 3537.18)" gradientUnits="userSpaceOnUse"><stop offset="0" stop-color="#4a6a3a"/><stop offset="0.13" stop-color="#5c8449"/><stop offset="0.28" stop-color="#6a9754"/><stop offset="0.44" stop-color="#74a55c"/><stop offset="0.65" stop-color="#79ae61"/><stop offset="1" stop-color="#7bb062"/></linearGradient><linearGradient id="Dégradé_sans_nom_5" x1="1094.24" y1="-3337.34" x2="1112.36" y2="-3337.34" gradientTransform="translate(-610.91 3537.18)" gradientUnits="userSpaceOnUse"><stop offset="0" stop-color="#006c9b"/><stop offset="0.03" stop-color="#00719f"/><stop offset="0.19" stop-color="#0084b0"/><stop offset="0.38" stop-color="#0092bc"/><stop offset="0.61" stop-color="#009bc3"/><stop offset="1" stop-color="#009dc5"/></linearGradient><linearGradient id="Dégradé_sans_nom_3" x1="1107.06" y1="-3324.85" x2="1107.06" y2="-3349.84" gradientTransform="translate(-610.91 3537.18)" gradientUnits="userSpaceOnUse"><stop offset="0" stop-color="#7bb062"/><stop offset="0.21" stop-color="#75a85d"/><stop offset="0.55" stop-color="#669251"/><stop offset="0.95" stop-color="#4d6f3d"/><stop offset="1" stop-color="#4a6a3a"/></linearGradient><linearGradient id="Dégradé_sans_nom_4" x1="1100.52" y1="-3336.92" x2="1100.52" y2="-3345.74" gradientTransform="translate(-610.91 3537.18)" gradientUnits="userSpaceOnUse"><stop offset="0" stop-color="#7bb062"/><stop offset="0.22" stop-color="#78ab5f"/><stop offset="0.48" stop-color="#6d9d57"/><stop offset="0.76" stop-color="#5d8549"/><stop offset="1" stop-color="#4a6a3a"/></linearGradient><linearGradient id="Dégradé_sans_nom_2-2" x1="1105.03" y1="-3380.32" x2="1120.86" y2="-3386.72" xlink:href="#Dégradé_sans_nom_2"/><linearGradient id="Dégradé_sans_nom_5-2" x1="1102.77" y1="-3382.77" x2="1120.89" y2="-3382.77" xlink:href="#Dégradé_sans_nom_5"/><linearGradient id="Dégradé_sans_nom_3-2" x1="1115.59" y1="-3370.27" x2="1115.59" y2="-3395.27" xlink:href="#Dégradé_sans_nom_3"/><linearGradient id="Dégradé_sans_nom_4-2" x1="1109.05" y1="-3382.35" x2="1109.05" y2="-3391.17" xlink:href="#Dégradé_sans_nom_4"/><linearGradient id="Dégradé_sans_nom_2-3" x1="893.13" y1="-3271.29" x2="908.96" y2="-3277.69" xlink:href="#Dégradé_sans_nom_2"/><linearGradient id="Dégradé_sans_nom_5-3" x1="890.87" y1="-3273.74" x2="908.99" y2="-3273.74" xlink:href="#Dégradé_sans_nom_5"/><linearGradient id="Dégradé_sans_nom_3-3" x1="903.69" y1="-3261.24" x2="903.69" y2="-3286.24" xlink:href="#Dégradé_sans_nom_3"/><linearGradient id="Dégradé_sans_nom_4-3" x1="897.15" y1="-3273.32" x2="897.15" y2="-3282.14" xlink:href="#Dégradé_sans_nom_4"/><linearGradient id="Dégradé_sans_nom_2-4" x1="859.41" y1="-3258.06" x2="875.24" y2="-3264.45" xlink:href="#Dégradé_sans_nom_2"/><linearGradient id="Dégradé_sans_nom_5-4" x1="857.15" y1="-3260.5" x2="875.27" y2="-3260.5" xlink:href="#Dégradé_sans_nom_5"/><linearGradient id="Dégradé_sans_nom_3-4" x1="869.98" y1="-3248.01" x2="869.98" y2="-3273" xlink:href="#Dégradé_sans_nom_3"/><linearGradient id="Dégradé_sans_nom_4-4" x1="863.43" y1="-3260.08" x2="863.43" y2="-3268.9" xlink:href="#Dégradé_sans_nom_4"/><linearGradient id="Dégradé_sans_nom_2-5" x1="878.52" y1="-3262.9" x2="894.35" y2="-3269.29" xlink:href="#Dégradé_sans_nom_2"/><linearGradient id="Dégradé_sans_nom_5-5" x1="876.26" y1="-3265.34" x2="894.38" y2="-3265.34" xlink:href="#Dégradé_sans_nom_5"/><linearGradient id="Dégradé_sans_nom_3-5" x1="889.09" y1="-3252.85" x2="889.09" y2="-3277.84" xlink:href="#Dégradé_sans_nom_3"/><linearGradient id="Dégradé_sans_nom_4-5" x1="882.54" y1="-3264.92" x2="882.54" y2="-3273.74" xlink:href="#Dégradé_sans_nom_4"/><linearGradient id="Dégradé_sans_nom_2-6" x1="1141.23" y1="-3418.01" x2="1157.07" y2="-3424.41" xlink:href="#Dégradé_sans_nom_2"/><linearGradient id="Dégradé_sans_nom_5-6" x1="1138.97" y1="-3420.46" x2="1157.09" y2="-3420.46" xlink:href="#Dégradé_sans_nom_5"/><linearGradient id="Dégradé_sans_nom_3-6" x1="1151.8" y1="-3407.96" x2="1151.8" y2="-3432.96" xlink:href="#Dégradé_sans_nom_3"/><linearGradient id="Dégradé_sans_nom_4-6" x1="1145.25" y1="-3420.04" x2="1145.25" y2="-3428.86" xlink:href="#Dégradé_sans_nom_4"/></defs><title>auvergne-rhone-aples-picto</title><g id="svg1"><g id="layer1"><path id="FR-ARA" class="cls-1" d="M585.14,277.34l-11.5-5.8,0-22.17-9.77-2-12.48-12.18,1.52-18.37,13.93-1.67,11.92-12.66-12.37-23.21L559,181.24l2.93-12.07L550.25,167l7.8-23.72-10.83-12.4,5.71-12-34.75-5L487.4,130.1l-3.7,8,4.64,10.07,5.63-.78-1.64,5.14-19.27,14.19-19.72,1.87,2.6-14.66,16.66-5.72L470,142.56l7.82-13.64-12.15-8.21h0L443.16,145.9l-16.64.65-1.33-8.05L417,132.6l-12,12.67-7.53.7-.82-9.9-3.42,1.39-1.47-5.41-2.35,6.23-3.08-12-9-5.14,1.79-5.54-9.07-1.94-3.89-8.47-16.74,4.11-13.26-5.78-18.7,57.06-6.25-.62,1.19-8.86-6.53-4.25,3.6-3.28L305.94,139l-7.11,6.76-5.76-4.73-7.43,4.38-11.36-4.7L270.48,159l-10.58,4.79-8.45-6.22-25.18,4.19-1.93-5.55-9.5-1.95.1-11.77,13.08-7-.57-22.41-5.73-5.2-9.33.82-3.48-7.24-11.19-1.2-.64-10.63L184.16,64,180,62.81,176.75,75l-12,6.29-4.19-10.48-8.5,5-9-5.53-8,6.81L115.66,57.25h0l-12.75.34-8.6,11.27-9.85,1.47-5.23-4.75L68.68,74.81l.43,5.3-6.68,0,5.14,17.7-9,5.73-20.27.4L29,120.08h0l.81,6.39L35.2,128l-3.66,4.83,20.79,10.49L66.12,184l1.13,10.43L61.83,197l-.91,7.11L41.51,218.69l15.6,19-.22,11.2-7,7.58,6.51,6.89-3.49,22.16,4.7,4.44-5.53,3.62-15.23-6.86L38.18,299,19,317.88l4.42,9.17-6.08,4.63-.76,9L8,344.26l5.13,9.52-9.41,4.15h0l3.43,16.6,9.29,13.73-4.85,14.9,9,12.88.86-5.22,9.21-3.1,6.61,4.51,15.19-1.65,8.81-11.21L66.45,379l15.28-15.51,4.14,13.86,10-3L110,411.58l14-39.15,3.24-2.84,7,6.67L140,364.41l5.06,1.42,9.86-7.85,13.3,27.38L180,382.2l.56-8.06,7,0,1.47,7.66,8.86-1.51,15.26,15.86,3.18,23.58,19.15,30.44L233,464l9.44-2.83,14.69,11.51,8-11.78,7.58-1.32.42,9,4.88,1.16,1.75-8.87,6-.86L302.4,471.8h0l.14-9.56,15.92,2.68L322,478.7l27.8-12.88,5.61,4.84,6.74-6L360.44,478l23.41,2.87,3.22,9.48,8.31,5.77,10-2.14,6.95-9.41,4.78,3.18,5-4,0-11.36L413,466.09l2.45-4.39-15.7-.67-7.24-6L391.23,447l9.08-1.93-4.62-10,18,4.47,5.76-5-7.72-6.71L417,410.46l16.9-.26,4.73-6L435,401.63l3.24-8.6,14.32-.16,3.37-3.42-3.56-3.78,7.87-5,4.48,3.18L473.7,376l13.09,2,5.09-3.57,7.42,3.08-3.68-23.37-13.79-2.83,4.75-17,10.12-.44,3.64,8.63,10,3,6.85-9.35,13.88.05h0l15.78-8.09,14.47,3.72,0-5.17,6.05-.23,6.48-8.24,9.27.56,6.14-6.42-2.87-11.69,7.48-13.46-7-3.84Z" transform="translate(-2.95 -56.55)"/></g></g><g id="annecy"><g id="picto"><path class="cls-2" d="M492.35,187.34h-.46c-5.91.16-9.74,6.67-7.33,12.39l7,12.25a1.31,1.31,0,0,0,1.79,0l7-12.25A9.09,9.09,0,0,0,492.35,187.34Zm-1.05,12.92a4.42,4.42,0,1,1,4.17-4.41,4.3,4.3,0,0,1-4.17,4.41Z" transform="translate(-2.95 -56.55)"/><path class="cls-3" d="M492.94,187.34h-1.05a5.65,5.65,0,0,0-.59,0c5.57.56,9.07,6.83,6.74,12.35l-6.52,11.47a.74.74,0,0,0,0,.76v0a1.31,1.31,0,0,0,1.79,0l7-12.25C502.69,194,498.85,187.5,492.94,187.34Z" transform="translate(-2.95 -56.55)"/><path class="cls-4" d="M491.3,200.26a4.13,4.13,0,0,0,.78-.08,4.47,4.47,0,0,1,0-8.67,4.11,4.11,0,0,0-.78-.07,4.42,4.42,0,0,0,0,8.82Z" transform="translate(-2.95 -56.55)"/></g><text class="cls-5" transform="translate(468.76 169.18) scale(1.1 1)">Annecy</text></g><g id="etrembieres"><g id="picto-2" data-name="picto"><path class="cls-6" d="M500.88,141.91h-.46c-5.91.16-9.74,6.67-7.33,12.39l7,12.25a1.29,1.29,0,0,0,1.79,0l7-12.25A9.09,9.09,0,0,0,500.88,141.91Zm-1.05,12.92a4.42,4.42,0,1,1,4.17-4.41,4.3,4.3,0,0,1-4.17,4.41Z" transform="translate(-2.95 -56.55)"/><path class="cls-7" d="M501.47,141.91h-1.05l-.59,0c5.57.56,9.07,6.83,6.74,12.35l-6.52,11.47a.74.74,0,0,0,0,.76v0a1.29,1.29,0,0,0,1.79,0l7-12.25C511.22,148.58,507.38,142.07,501.47,141.91Z" transform="translate(-2.95 -56.55)"/><path class="cls-8" d="M499.83,154.83a4,4,0,0,0,.78-.08,4.46,4.46,0,0,1,0-8.66,3.39,3.39,0,0,0-.78-.08,4.42,4.42,0,0,0,0,8.82Z" transform="translate(-2.95 -56.55)"/></g><text class="cls-5" transform="translate(449.22 120.73) scale(1.1 1)">Etrembières</text></g><g id="saint-chamond"><g id="picto-3" data-name="picto"><path class="cls-9" d="M289,250.94h-.46c-5.91.16-9.74,6.67-7.34,12.39l7,12.25a1.31,1.31,0,0,0,1.79,0l7-12.25A9.09,9.09,0,0,0,289,250.94Zm-1.05,12.92a4.42,4.42,0,1,1,4.16-4.41,4.3,4.3,0,0,1-4.16,4.41Z" transform="translate(-2.95 -56.55)"/><path class="cls-10" d="M289.57,250.94h-1.05a5.65,5.65,0,0,0-.59,0c5.57.56,9.07,6.83,6.74,12.35l-6.53,11.47a.79.79,0,0,0,0,.76v0a1.31,1.31,0,0,0,1.79,0l7-12.25C299.31,257.61,295.48,251.1,289.57,250.94Z" transform="translate(-2.95 -56.55)"/><path class="cls-11" d="M287.93,263.86a4.13,4.13,0,0,0,.78-.08,4.47,4.47,0,0,1,0-8.67,4.11,4.11,0,0,0-.78-.07,4.42,4.42,0,0,0,0,8.82Z" transform="translate(-2.95 -56.55)"/></g><text class="cls-5" transform="translate(294.63 226.15) scale(1.1 1)">St Chaumond</text></g><g id="firminy"><g id="picto-4" data-name="picto"><path class="cls-12" d="M255.26,264.18h-.46c-5.9.16-9.74,6.67-7.33,12.39l7,12.25a1.3,1.3,0,0,0,1.78,0l7-12.25A9.09,9.09,0,0,0,255.26,264.18Zm-1,12.92a4.42,4.42,0,1,1,4.17-4.41,4.29,4.29,0,0,1-4.17,4.41Z" transform="translate(-2.95 -56.55)"/><path class="cls-13" d="M255.86,264.18H254.8a5.85,5.85,0,0,0-.59,0c5.57.56,9.07,6.83,6.75,12.35L254.43,288a.79.79,0,0,0,0,.76v0a1.3,1.3,0,0,0,1.78,0l7-12.25C265.6,270.85,261.77,264.34,255.86,264.18Z" transform="translate(-2.95 -56.55)"/><path class="cls-14" d="M254.21,277.1A4.15,4.15,0,0,0,255,277a4.47,4.47,0,0,1,0-8.67,4.15,4.15,0,0,0-.79-.07,4.42,4.42,0,0,0,0,8.82Z" transform="translate(-2.95 -56.55)"/></g><text class="cls-5" transform="translate(207.6 242.39) scale(1.1 1)">Firmi<tspan class="cls-15" x="26.23" y="0">n</tspan><tspan class="cls-16" x="32.35" y="0">y</tspan></text></g><g id="saint-etienne"><g id="picto-5" data-name="picto"><path class="cls-17" d="M274.37,259.34h-.46c-5.91.16-9.74,6.67-7.33,12.39l7,12.25a1.3,1.3,0,0,0,1.78,0l7-12.25A9.09,9.09,0,0,0,274.37,259.34Zm-1.05,12.92a4.42,4.42,0,1,1,4.17-4.41,4.3,4.3,0,0,1-4.17,4.41Z" transform="translate(-2.95 -56.55)"/><path class="cls-18" d="M275,259.34h-1.06a5.85,5.85,0,0,0-.59,0c5.57.56,9.07,6.83,6.74,12.35l-6.52,11.47a.74.74,0,0,0,0,.76v0a1.3,1.3,0,0,0,1.78,0l7-12.25C284.71,266,280.87,259.5,275,259.34Z" transform="translate(-2.95 -56.55)"/><path class="cls-19" d="M273.32,272.26a4,4,0,0,0,.78-.08,4.47,4.47,0,0,1,0-8.67,4,4,0,0,0-.78-.07,4.42,4.42,0,0,0,0,8.82Z" transform="translate(-2.95 -56.55)"/></g><text class="cls-5" transform="translate(271.46 239.21) scale(1.1 1)">St Etienne</text></g><g id="thonon-les-bains"><g id="picto-6" data-name="picto"><path class="cls-20" d="M537.08,104.23h-.45c-5.91.15-9.75,6.67-7.34,12.38l7,12.25a1.29,1.29,0,0,0,1.79,0l7-12.25A9.08,9.08,0,0,0,537.08,104.23ZM536,117.15a4.42,4.42,0,1,1,4.17-4.42,4.29,4.29,0,0,1-4.17,4.42Z" transform="translate(-2.95 -56.55)"/><path class="cls-21" d="M537.68,104.23h-1q-.3,0-.6,0c5.57.56,9.07,6.83,6.75,12.35l-6.53,11.48a.79.79,0,0,0,0,.76h0a1.29,1.29,0,0,0,1.79,0l7-12.25C547.42,110.9,543.59,104.38,537.68,104.23Z" transform="translate(-2.95 -56.55)"/><path class="cls-22" d="M536,117.14a4.15,4.15,0,0,0,.79-.07,4.47,4.47,0,0,1,0-8.67,4.15,4.15,0,0,0-.79-.08,4.42,4.42,0,0,0,0,8.82Z" transform="translate(-2.95 -56.55)"/></g><text class="cls-5" transform="translate(484.19 85.36) scale(1.1 1)">Thonon les <tspan class="cls-23" x="-53.87" y="13.11">	</tspan><tspan x="-21.1" y="13.11" xml:space="preserve">                       bains</tspan></text></g></svg>