<?xml version="1.0" encoding="UTF-8" standalone="no"?>
<!-- Created with Inkscape (http://www.inkscape.org/) -->

<svg
   width="210mm"
   height="297mm"
   viewBox="0 0 210 297"
   version="1.1"
   id="svg1"
   inkscape:version="1.3.2 (091e20e, 2023-11-25, custom)"
   sodipodi:docname="auvergne-rhone-aplessvg.svg"
   xmlns:inkscape="http://www.inkscape.org/namespaces/inkscape"
   xmlns:sodipodi="http://sodipodi.sourceforge.net/DTD/sodipodi-0.dtd"
   xmlns="http://www.w3.org/2000/svg"
   xmlns:svg="http://www.w3.org/2000/svg">
  <sodipodi:namedview
     id="namedview1"
     pagecolor="#ffffff"
     bordercolor="#000000"
     borderopacity="0.25"
     inkscape:showpageshadow="2"
     inkscape:pageopacity="0.0"
     inkscape:pagecheckerboard="0"
     inkscape:deskcolor="#d1d1d1"
     inkscape:document-units="mm"
     inkscape:zoom="0.69219276"
     inkscape:cx="397.28818"
     inkscape:cy="560.5375"
     inkscape:window-width="1680"
     inkscape:window-height="1020"
     inkscape:window-x="2518"
     inkscape:window-y="268"
     inkscape:window-maximized="0"
     inkscape:current-layer="layer1" />
  <defs
     id="defs1" />
  <g
     inkscape:label="Calque 1"
     inkscape:groupmode="layer"
     id="layer1">
    <path
       id="FR-ARA"
       title="Auvergne-Rhône-Alpes"
       class="land"
       d="m 206.42301,97.840525 -4.05474,-2.048425 -0.0117,-7.819188 -3.44479,-0.691315 -4.40379,-4.297899 0.53736,-6.48068 4.91371,-0.588351 4.20473,-4.465577 -4.36361,-8.188861 -2.59364,0.678562 1.03454,-4.25966 -4.12339,-0.760929 2.75156,-8.367328 -3.82138,-4.37733 2.0151,-4.218473 -12.26121,-1.760152 -10.85702,5.702102 -1.30712,2.832907 1.6366,3.552656 1.98665,-0.275551 -0.57854,1.813102 -6.7984,5.004902 -6.95725,0.661896 0.9198,-5.174545 5.87468,-2.018043 -0.908,-2.002354 2.75934,-4.812709 -4.28708,-2.894684 v 0 l -7.94963,8.887037 -5.86979,0.228485 -0.46872,-2.841736 -2.88585,-2.079818 -4.23318,4.470482 -2.65445,0.246124 -0.28943,-3.493822 -1.20811,0.493234 -0.51674,-1.91018 -0.83058,2.198471 -1.08747,-4.220433 -3.17023,-1.81212 0.63148,-1.955291 -3.20062,-0.683463 -1.37083,-2.987842 -5.90704,1.450284 -4.67743,-2.040596 -6.59832,20.128456 -2.20238,-0.216698 0.41968,-3.125123 -2.30437,-1.502251 1.26988,-1.156111 -1.2532,-1.615022 -2.50835,2.383799 -2.0308,-1.667973 -2.62204,1.544421 -4.005723,-1.65523 -1.343409,6.448326 -3.729155,1.687586 -2.983896,-2.191609 -8.883107,1.476764 -0.679555,-1.958227 -3.350657,-0.68641 0.03325,-4.154737 4.616602,-2.4848 -0.203095,-7.907434 -2.020002,-1.832711 -3.292792,0.288301 -1.225731,-2.553441 -3.947831,-0.424591 -0.227557,-3.748777 -4.555776,-9.042949 -1.473829,-0.408901 -1.140408,4.303782 -4.233208,2.218081 -1.477703,-3.696803 -3.000606,1.774858 -3.159464,-1.952343 -2.825043,2.402432 -6.855255,-7.010195 v 0 l -4.498914,0.118627 -3.032961,3.974309 -3.47618,0.52069 -1.844474,-1.674837 -3.720341,3.255543 0.150099,1.86899 -2.357296,-0.01173 1.816013,6.243382 -3.182949,2.022949 -7.15238,0.142171 -3.269265,5.70308 v 0 l 0.285373,2.253385 1.897435,0.541283 -1.290443,1.705235 7.335724,3.700723 4.864687,14.358701 0.398115,3.680131 -1.913114,0.893314 -0.320581,2.509318 -6.847402,5.146098 5.503998,6.700339 -0.07746,3.948824 -2.463215,2.675017 2.296513,2.428902 -1.229661,7.819182 1.65624,1.566 -1.949434,1.27673 -5.373579,-2.42109 0.46086,4.34891 -6.7542616,6.64835 1.5591308,3.23495 -2.1455209,1.63463 -0.268696,3.16241 -3.0280474,1.27474 1.8072174,3.3585 -3.3182982,1.46304 v 0 l 1.2090637,5.85604 3.2771119,4.84509 -1.7101381,5.25494 3.1839572,4.54599 0.305942,-1.84155 3.2486932,-1.09532 2.332797,1.59151 5.356936,-0.5815 3.106492,-3.95468 1.81212,-7.18474 5.389292,-5.4746 1.461073,4.89115 3.526177,-1.05903 4.970609,13.13591 4.949949,-13.81153 1.143384,-1.00215 2.455357,2.3534 2.034713,-4.18124 1.787622,0.49913 3.476181,-2.76918 4.694058,9.66074 4.16451,-1.11493 0.199032,-2.84367 2.463246,-0.0107 0.516748,2.70052 3.126088,-0.53151 5.38147,5.59719 1.123753,8.31731 6.754255,10.73839 -0.851147,4.89703 3.330083,-0.99821 5.182377,4.05864 2.813296,-4.15473 2.675016,-0.46579 0.14609,3.17511 1.721878,0.40794 0.618778,-3.12906 2.120985,-0.30095 5.8629,4.14986 v 0 l 0.0489,-3.37224 5.61776,0.94726 1.23749,4.86073 9.80685,-4.544 1.97881,1.70621 2.37794,-2.12003 -0.59424,4.70287 8.26043,1.01297 1.13554,3.34379 2.93097,2.03473 3.52124,-0.75215 2.45049,-3.32025 1.68564,1.12081 1.75916,-1.39732 0.009,-4.00865 -3.19968,-2.22692 0.86684,-1.54832 -5.53932,-0.23718 -2.55639,-2.10531 -0.46086,-2.85548 3.20456,-0.68151 -1.63267,-3.5193 6.35123,1.57483 2.03078,-1.75135 -2.72305,-2.36712 1.87289,-6.13652 5.9639,-0.0911 1.669,-2.11117 -1.28264,-0.91292 1.14339,-3.03295 5.05195,-0.0568 1.18846,-1.20613 -1.25315,-1.33162 2.77601,-1.76112 1.57975,1.12081 3.1545,-2.7633 4.61661,0.70994 1.79545,-1.25905 2.61717,1.08746 -1.29826,-8.24572 -4.86471,-0.99825 1.67677,-6.00315 3.5713,-0.15603 1.28257,3.04571 3.50856,1.04528 2.41809,-3.29769 4.89805,0.0184 v 0 l 5.56481,-2.85251 5.10492,1.31105 0.009,-1.82391 2.13766,-0.0804 2.28378,-2.90744 3.26926,0.19605 2.16906,-2.26415 -1.01293,-4.12334 2.63777,-4.74702 -2.46325,-1.358107 z"
       style="fill:#cccccc;fill-opacity:1;stroke:#ffffff;stroke-width:0.490293;stroke-opacity:1" />
  </g>
</svg>
