<?xml version="1.0" encoding="UTF-8" standalone="no"?>
<!-- Created with Inkscape (http://www.inkscape.org/) -->

<svg
   width="210mm"
   height="297mm"
   viewBox="0 0 210 297"
   version="1.1"
  
  
     inkscape:label="Calque 1"
     inkscape:groupmode="layer"
     id="layer1">
    <path
       id="FR-GES"
       title="Grand Est"
       class="land"
       d="m 197.75205,86.74469 -2.91717,1.604378 -3.12019,-2.117637 -2.54549,1.459641 -4.40802,-0.716263 -4.54753,-2.79644 -1.47314,-4.696398 -2.5247,0.283325 0.39354,-1.25873 -3.45334,0.811051 -3.06814,3.715658 -5.91243,-0.36869 -2.49864,-2.332076 -2.0572,2.740202 -0.75274,-5.060801 -4.11441,-2.124912 -4.33514,0.666333 -0.11141,3.929097 -4.18006,-0.73189 -2.98691,-7.634407 -4.45071,-4.428821 1.45547,-1.236849 -2.52886,-4.403833 -4.99206,-2.950526 -3.99366,0.629895 -4.07071,-3.092065 -8.57974,4.404895 -2.66729,-0.265604 -0.59133,-2.778689 -4.21437,-0.358075 -4.1363,-4.276854 -1.16709,1.607475 -4.477807,-0.743377 -1.339863,2.841177 -2.368519,-1.506467 -3.625122,2.130105 -1.867726,-6.51627 -3.523091,-2.320632 -1.469007,1.310787 0.756873,-2.848458 -2.68811,-2.830789 -4.455931,0.213272 -3.120159,-4.633945 -4.271661,-2.490304 -6.219542,0.474743 -0.198711,-4.930673 1.777187,-2.863017 -4.266467,-3.964502 2.230051,-4.64748 -0.911986,-1.805282 3.294041,-4.817193 -3.004631,-2.132151 -5.752078,5.600075 -0.03936,5.986322 -10.636949,3.893716 -5.895741,-2.130066 -3.365892,0.70379 v 0 l 0.920327,6.057111 -2.039523,5.899951 1.892712,1.534563 -5.34293,5.265885 -0.484106,2.996289 -3.959312,0.738143 2.351851,3.384621 -1.789654,14.005952 -4.88069,-3.078528 -2.951526,1.755308 -0.190527,2.342469 -3.17328,-0.76002 -5.731266,2.830748 0.371688,6.656825 4.084243,3.55434 -5.462665,0.560089 -0.925538,2.029136 1.612666,2.791158 -2.2904242,2.644425 2.8307572,-0.408125 1.171239,1.898986 -8.3246528,10.621333 v 0 l 0.073937,2.50072 -3.6136671,0.34037 1.7282287,1.19726 -2.1217672,2.08531 3.1930603,1.32013 -0.7475082,6.70364 3.600131,-0.73086 1.0848294,1.94375 -4.0977787,2.9911 0.6964965,1.88126 -3.2201284,0.89117 1.3617619,2.43304 -2.3601812,0.70172 1.3659248,5.83955 v 0 l 0.6007175,2.05617 3.2721829,-0.51949 4.9827156,6.34447 -1.7198978,5.446 2.2227508,-0.34233 1.593928,3.22428 3.509556,-1.65954 -0.375819,2.15091 2.231081,0.94846 3.483529,6.63598 -0.868282,2.05412 1.854204,-1.19208 0.812061,1.40444 -0.807893,3.24305 6.478779,0.26326 0.670468,-1.32536 2.161343,1.27328 2.467402,-2.16135 1.521027,1.16499 1.037979,-1.96873 0.795435,2.69544 2.0749,0.32778 0.936973,-2.34141 10.386061,-0.43104 -0.807907,-2.48511 1.845888,-1.45546 9.269975,1.49502 -0.363189,2.80056 3.484567,1.41485 -1.460664,2.03226 3.095172,-0.79127 3.855234,7.27731 -3.31175,2.62256 1.867729,0.32699 0.422685,4.87547 2.602762,-1.56163 3.845827,4.1019 2.631921,-2.16237 -0.211304,1.79801 3.700041,1.91876 -0.220747,2.92026 2.929673,-2.29977 1.422142,1.36697 2.799546,-5.5116 4.565202,0.24278 1.814647,-2.20818 1.267031,2.25917 4.057171,-0.80579 0.008,-8.71716 2.18736,0.052 0.82978,-2.53614 2.89635,0.46852 4.55064,-8.03627 0.72563,2.67665 3.89895,-4.35075 4.12274,-1.02444 2.97339,5.62612 v 0 0 0 l 7.9967,-1.83963 3.84999,4.82239 5.56781,-3.81876 11.16895,10.44327 6.45693,2.53824 1.42112,3.89996 -1.85317,5.09725 3.49185,0.59442 2.00934,5.7386 v 0 l 2.99523,0.56737 -1.3732,3.19932 3.16285,1.43985 6.18935,-0.69441 2.98693,-2.47265 -1.04631,-1.54291 2.47681,0.82247 1.81876,-2.89633 -1.36173,-0.74023 3.63967,-2.30499 -3.09517,-7.78223 1.5731,-2.32479 0.37577,-9.3283 2.84012,-5.98006 -2.28106,-4.01244 0.31558,-5.57299 5.0264,-11.73011 2.23112,-1.64599 -0.53203,-4.35803 4.6069,-16.05067 5.73647,-7.58758 5.0785,-2.95568 5.9676,-11.279325 -1.19626,0.45291 z"
       style="fill:#cccccc;fill-opacity:1;stroke:#ffffff;stroke-width:0.520553;stroke-opacity:1" />
  
</svg>
