<?xml version="1.0" encoding="utf-8"?>
<!-- Generator: Adobe Illustrator 24.0.0, SVG Export Plug-In . SVG Version: 6.00 Build 0)  -->
<svg version="1.1" xmlns="http://www.w3.org/2000/svg" xmlns:xlink="http://www.w3.org/1999/xlink"
	x="0px" y="0px"
	viewBox="0 0 595.3 841.9" style="enable-background:new 0 0 595.3 841.9;" xml:space="preserve">
<style type="text/css">
	.st0{fill:#083868;stroke:#FFFFFF;stroke-width:2.4707;stroke-miterlimit:11.3386;}
	.st1{fill:url(#SVGID_1_);stroke:url(#SVGID_2_);stroke-miterlimit:10;}
	.st2{fill:none;}
	.st3{fill:url(#SVGID_3_);}
	.st4{fill:#FFFFFF;}
	.st5{font-family:'Lato-Black';}
	.st6{font-size:12px;}
	.st7{fill:url(#SVGID_4_);stroke:url(#SVGID_5_);stroke-miterlimit:10;}
	.st8{fill:url(#SVGID_6_);}
	.st9{fill:url(#SVGID_7_);}
	.st10{fill:url(#SVGID_8_);stroke:url(#SVGID_9_);stroke-miterlimit:10;}
	.st11{fill:url(#SVGID_10_);}
	.st12{fill:url(#SVGID_11_);}
	.st13{fill:url(#SVGID_12_);stroke:url(#SVGID_13_);stroke-miterlimit:10;}
	.st14{fill:url(#SVGID_14_);}
	.st15{fill:url(#SVGID_15_);}
	.st16{fill:url(#SVGID_16_);stroke:url(#SVGID_17_);stroke-miterlimit:10;}
	.st17{fill:url(#SVGID_18_);}
	.st18{fill:url(#SVGID_19_);}
	.st19{fill:url(#SVGID_20_);stroke:url(#SVGID_21_);stroke-miterlimit:10;}
	.st20{fill:url(#SVGID_22_);}
	.st21{fill:url(#SVGID_23_);}
	.st22{fill:url(#SVGID_24_);stroke:url(#SVGID_25_);stroke-miterlimit:10;}
	.st23{fill:url(#SVGID_26_);}
	.st24{fill:url(#SVGID_27_);}
	.st25{fill:url(#SVGID_28_);stroke:url(#SVGID_29_);stroke-miterlimit:10;}
	.st26{fill:url(#SVGID_30_);}
	.st27{fill:url(#SVGID_31_);}
	.st28{fill:url(#SVGID_32_);stroke:url(#SVGID_33_);stroke-miterlimit:10;}
	.st29{fill:url(#SVGID_34_);}
	.st30{fill:url(#SVGID_35_);}
	.st31{fill:url(#SVGID_36_);stroke:url(#SVGID_37_);stroke-miterlimit:10;}
	.st32{fill:url(#SVGID_38_);}
	.st33{fill:url(#SVGID_39_);}
	.st34{fill:url(#SVGID_40_);stroke:url(#SVGID_41_);stroke-miterlimit:10;}
	.st35{fill:url(#SVGID_42_);}
	.st36{fill:url(#SVGID_43_);}
	.st37{fill:url(#SVGID_44_);stroke:url(#SVGID_45_);stroke-miterlimit:10;}
	.st38{fill:url(#SVGID_46_);}
	.st39{fill:url(#SVGID_47_);}
	.st40{fill:url(#SVGID_48_);stroke:url(#SVGID_49_);stroke-miterlimit:10;}
	.st41{fill:url(#SVGID_50_);}
	.st42{fill:url(#SVGID_51_);}
	.st43{fill:url(#SVGID_52_);stroke:url(#SVGID_53_);stroke-miterlimit:10;}
	.st44{fill:url(#SVGID_54_);}
	.st45{fill:url(#SVGID_55_);}
	.st46{fill:url(#SVGID_56_);stroke:url(#SVGID_57_);stroke-miterlimit:10;}
	.st47{fill:url(#SVGID_58_);}
	.st48{fill:url(#SVGID_59_);}
</style>
<g id="région" inkscape:version="1.3.2 (091e20e, 2023-11-25, custom)" sodipodi:docname="hauts-de-france-perso.svg" xmlns:inkscape="http://www.inkscape.org/namespaces/inkscape" xmlns:sodipodi="http://sodipodi.sourceforge.net/DTD/sodipodi-0.dtd" xmlns:svg="http://www.w3.org/2000/svg">
	
		<sodipodi:namedview  bordercolor="#000000" borderopacity="0.25" id="namedview1" inkscape:current-layer="layer1" inkscape:cx="397.28818" inkscape:cy="617.60253" inkscape:deskcolor="#d1d1d1" inkscape:document-units="mm" inkscape:pagecheckerboard="0" inkscape:pageopacity="0.0" inkscape:showpageshadow="2" inkscape:window-height="991" inkscape:window-maximized="1" inkscape:window-width="1920" inkscape:window-x="-9" inkscape:window-y="1341" inkscape:zoom="0.69219276" pagecolor="#ffffff">
		</sodipodi:namedview>
	<g id="layer1" inkscape:groupmode="layer" inkscape:label="Calque 1">
		<path id="FR-HDF" class="st0" d="M569.2,419.9l19.3-15.9l-6.2-20.3l-14.7-0.2l16.4-44.3l-9.5-5.5l-5.1,10l-23.2-32.4L521,321.7
			l-31.7-7.8l-8.1,14.8L471,308l0.3-27.8l-10.7-12.7l-22.2,2.8l3.7-11.7l-9-3.1l-20.2,13.5l-17.3-10.7l-10.7-43l4.4-14.1l-14.2-7.6
			l-8.2-21l-40.7,12.3l-9.5,19.3l-24-11.2l-13.6-27.1l-18-0.7l-7.3-12.1l-1.9-22.7l8.5-9l-18.1-46.1L78.3,122.6l-17.1,18.9
			l-16.4,4.8l6.7,21.8l-10.5,25.2l2.8,50.6l2.1,10l-6.6,44.3L53.6,309l-14.1,1.7L35.7,336l31,30.1l-34-6L3.1,405.7l0,0l14.6-1.8
			l0.7,9.7l53.3,48.6l15.2,39.4l-7.5-0.3l-12.4,21.7h12.8l-11.1,16l-0.2,19.5l10.7,14l-6.4,10.8l15,0l-15.7,30.3l18.4,41.8l-3.1,8.9
			l-6.4-8.2l-10,2.4l-1.1,10.3l0,0l10.4,17.6l16.6,3.5l34.2-3.6l16.2-10.8l18.4,14.6l9.8-4.9l3,8.8l16.6-11l36.2,25l12.7-5.7
			l6.4,13.9l10.2-8.9l20.7,14.8l15.3-11.2l8.9,8.2l24-6.7l3.9,6.4l16.2-4.4l0.7-9.9l14,3.4l10.7,17.5l-4.8,11.8l20,22.9l8.2-3.1
			l4.9,12.6l7.9-6.3l3.1,17.6l16,10.7l4.9-4.6l0,0l39.5-50.4l-5.6-9l-13.4,1.9l10.9-12.5l-7.7-13.2l4.4-9.6l25.9-2.7l-19.4-16.9
			l-1.8-31.6l27.2-13.4l15.1,3.6l0.9-11.1l14-8.3l23.2,14.6l8.5-66.5l-11.2-16.1l18.8-3.5l2.3-14.2l25.4-25l-9-7.3l9.7-28l-4.4-28.7
			l0,0l-7.4,0.8L569.2,419.9z"/>
	</g>
</g>
<g id="Guise">
	<g>
		
			<linearGradient id="SVGID_1_" gradientUnits="userSpaceOnUse" x1="1056.4875" y1="326.053" x2="1072.1552" y2="332.3831" gradientTransform="matrix(1 0 0 -1 -610.91 765.18)">
			<stop  offset="0" style="stop-color:#4A6A3A"/>
			<stop  offset="0.13" style="stop-color:#5C8449"/>
			<stop  offset="0.28" style="stop-color:#6A9754"/>
			<stop  offset="0.44" style="stop-color:#74A55C"/>
			<stop  offset="0.65" style="stop-color:#79AE61"/>
			<stop  offset="1" style="stop-color:#7BB062"/>
		</linearGradient>
		
			<linearGradient id="SVGID_2_" gradientUnits="userSpaceOnUse" x1="1054.2451" y1="328.4767" x2="1072.1876" y2="328.4767" gradientTransform="matrix(1 0 0 -1 -610.91 765.18)">
			<stop  offset="0" style="stop-color:#006C9B"/>
			<stop  offset="3.000000e-02" style="stop-color:#00719F"/>
			<stop  offset="0.19" style="stop-color:#0084B0"/>
			<stop  offset="0.38" style="stop-color:#0092BC"/>
			<stop  offset="0.61" style="stop-color:#009BC3"/>
			<stop  offset="1" style="stop-color:#009DC5"/>
		</linearGradient>
		<path class="st1" d="M452.3,424.3c-0.1,0-0.2,0-0.2,0c-0.1,0-0.2,0-0.2,0c-5.8,0.2-9.6,6.6-7.3,12.3l6.9,12.1
			c0.3,0.5,1.5,0.5,1.8,0l6.9-12.1C462.5,430.9,458.1,424.5,452.3,424.3z M451.2,437.1c-2.3,0-4.1-2-4.1-4.4c0-2.4,1.8-4.4,4.1-4.4
			s4.1,2,4.1,4.4C455.4,435.2,453.5,437.1,451.2,437.1L451.2,437.1z"/>
		<path class="st2" d="M452.9,424.3c-0.1,0-0.7,0-0.8,0s-0.2,0-0.2,0c-0.2,0-0.4,0-0.6,0c5.5,0.6,9,6.8,6.7,12.2l-6.5,11.4
			c-0.1,0.2-0.1,0.5,0,0.8l0,0c0.3,0.5,1.5,0.5,1.8,0l6.9-12.1C462.5,430.9,458.7,424.5,452.9,424.3z"/>
		
			<linearGradient id="SVGID_3_" gradientUnits="userSpaceOnUse" x1="1060.4662" y1="328.0583" x2="1060.4662" y2="336.7883" gradientTransform="matrix(1 0 0 -1 -610.91 765.18)">
			<stop  offset="0" style="stop-color:#7BB062"/>
			<stop  offset="0.22" style="stop-color:#78AB5F"/>
			<stop  offset="0.48" style="stop-color:#6D9D57"/>
			<stop  offset="0.76" style="stop-color:#5D8549"/>
			<stop  offset="1" style="stop-color:#4A6A3A"/>
		</linearGradient>
		<path class="st3" d="M451.2,437.1c0.3,0,0.5,0,0.8-0.1c-1.9-0.4-3.3-2.2-3.3-4.3c0-2.1,1.4-3.9,3.3-4.3c-0.3-0.1-0.5-0.1-0.8-0.1
			c-2.3,0-4.1,2-4.1,4.4C447.1,435.2,449,437.1,451.2,437.1z"/>
	</g>
	<text transform="matrix(1 0 0 1 437.3369 463.1249)" class="st4 st5 st6">Guise</text>
</g>

<g id="Hazebrouck">
	<g>
		
			<linearGradient id="SVGID_4_" gradientUnits="userSpaceOnUse" x1="223.7963" y1="118.3946" x2="239.6449" y2="124.7979" gradientTransform="matrix(1 -8.417130e-03 8.417130e-03 1 -1.021 1.9649)">
			<stop  offset="0" style="stop-color:#4A6A3A"/>
			<stop  offset="0.13" style="stop-color:#5C8449"/>
			<stop  offset="0.28" style="stop-color:#6A9754"/>
			<stop  offset="0.44" style="stop-color:#74A55C"/>
			<stop  offset="0.65" style="stop-color:#79AE61"/>
			<stop  offset="1" style="stop-color:#7BB062"/>
		</linearGradient>
		
			<linearGradient id="SVGID_5_" gradientUnits="userSpaceOnUse" x1="223.9227" y1="122.2796" x2="241.8653" y2="122.2796" gradientTransform="matrix(1 -8.417130e-03 8.417130e-03 1 -1.021 1.9649)">
			<stop  offset="0" style="stop-color:#006C9B"/>
			<stop  offset="3.000000e-02" style="stop-color:#00719F"/>
			<stop  offset="0.19" style="stop-color:#0084B0"/>
			<stop  offset="0.38" style="stop-color:#0092BC"/>
			<stop  offset="0.61" style="stop-color:#009BC3"/>
			<stop  offset="1" style="stop-color:#009DC5"/>
		</linearGradient>
		<path class="st7" d="M232.8,109.9c-0.1,0-0.2,0-0.2,0c-0.1,0-0.2,0-0.2,0c-5.8,0.2-9.6,6.7-7.2,12.3l7,12.1c0.3,0.5,1.5,0.5,1.8,0
			l6.8-12.2C243,116.4,238.6,110,232.8,109.9z M231.8,122.7c-2.3,0-4.1-1.9-4.2-4.3c0-2.4,1.8-4.4,4.1-4.4s4.1,1.9,4.2,4.3
			S234.1,122.7,231.8,122.7L231.8,122.7z"/>
		
			<linearGradient id="SVGID_6_" gradientUnits="userSpaceOnUse" x1="847.5314" y1="630.5314" x2="847.5314" y2="655.2696" gradientTransform="matrix(1 -8.417130e-03 -8.417130e-03 -1 -605.4687 772.2599)">
			<stop  offset="0" style="stop-color:#7BB062"/>
			<stop  offset="0.21" style="stop-color:#75A85D"/>
			<stop  offset="0.55" style="stop-color:#669251"/>
			<stop  offset="0.95" style="stop-color:#4D6F3D"/>
			<stop  offset="1" style="stop-color:#4A6A3A"/>
		</linearGradient>
		<path class="st8" d="M233.3,109.9c-0.1,0-0.7,0-0.8,0c-0.1,0-0.2,0-0.2,0c-0.2,0-0.4,0-0.6,0c5.5,0.5,9,6.7,6.8,12.2l-6.4,11.4
			c-0.1,0.2-0.1,0.5,0,0.8l0,0c0.3,0.5,1.5,0.5,1.8,0l6.8-12.2C243,116.4,239.2,110,233.3,109.9z"/>
		
			<linearGradient id="SVGID_7_" gradientUnits="userSpaceOnUse" x1="841.0538" y1="642.482" x2="841.0538" y2="651.212" gradientTransform="matrix(1 -8.417130e-03 -8.417130e-03 -1 -605.4687 772.2599)">
			<stop  offset="0" style="stop-color:#7BB062"/>
			<stop  offset="0.22" style="stop-color:#78AB5F"/>
			<stop  offset="0.48" style="stop-color:#6D9D57"/>
			<stop  offset="0.76" style="stop-color:#5D8549"/>
			<stop  offset="1" style="stop-color:#4A6A3A"/>
		</linearGradient>
		<path class="st9" d="M231.8,122.7c0.3,0,0.5,0,0.8-0.1c-1.9-0.4-3.4-2.1-3.4-4.3s1.4-3.9,3.3-4.3c-0.3,0-0.5-0.1-0.8-0.1
			c-2.3,0-4.1,2-4.1,4.4S229.5,122.7,231.8,122.7z"/>
	</g>
	<text transform="matrix(1 0 0 1 181.0479 147.0819)" class="st4 st5 st6">Hazebrouck</text>
</g>
<g id="Laon">
	<g>
		
			<linearGradient id="SVGID_8_" gradientUnits="userSpaceOnUse" x1="1047.9861" y1="211.1629" x2="1063.6536" y2="217.493" gradientTransform="matrix(1 0 0 -1 -610.91 765.18)">
			<stop  offset="0" style="stop-color:#4A6A3A"/>
			<stop  offset="0.13" style="stop-color:#5C8449"/>
			<stop  offset="0.28" style="stop-color:#6A9754"/>
			<stop  offset="0.44" style="stop-color:#74A55C"/>
			<stop  offset="0.65" style="stop-color:#79AE61"/>
			<stop  offset="1" style="stop-color:#7BB062"/>
		</linearGradient>
		
			<linearGradient id="SVGID_9_" gradientUnits="userSpaceOnUse" x1="1045.7437" y1="213.5866" x2="1063.6862" y2="213.5866" gradientTransform="matrix(1 0 0 -1 -610.91 765.18)">
			<stop  offset="0" style="stop-color:#006C9B"/>
			<stop  offset="3.000000e-02" style="stop-color:#00719F"/>
			<stop  offset="0.19" style="stop-color:#0084B0"/>
			<stop  offset="0.38" style="stop-color:#0092BC"/>
			<stop  offset="0.61" style="stop-color:#009BC3"/>
			<stop  offset="1" style="stop-color:#009DC5"/>
		</linearGradient>
		<path class="st10" d="M443.8,539.2c-0.1,0-0.2,0-0.2,0c-0.1,0-0.2,0-0.2,0c-5.8,0.2-9.6,6.6-7.3,12.3l6.9,12.1
			c0.3,0.5,1.5,0.5,1.8,0l6.9-12.1C454,545.8,449.6,539.4,443.8,539.2z M442.7,552c-2.3,0-4.1-2-4.1-4.4s1.8-4.4,4.1-4.4
			s4.1,2,4.1,4.4S445,552,442.7,552L442.7,552z"/>
		
			<linearGradient id="SVGID_10_" gradientUnits="userSpaceOnUse" x1="1058.4424" y1="201.2176" x2="1058.4424" y2="225.9558" gradientTransform="matrix(1 0 0 -1 -610.91 765.18)">
			<stop  offset="0" style="stop-color:#7BB062"/>
			<stop  offset="0.21" style="stop-color:#75A85D"/>
			<stop  offset="0.55" style="stop-color:#669251"/>
			<stop  offset="0.95" style="stop-color:#4D6F3D"/>
			<stop  offset="1" style="stop-color:#4A6A3A"/>
		</linearGradient>
		<path class="st11" d="M444.4,539.2c-0.1,0-0.7,0-0.8,0s-0.2,0-0.2,0c-0.2,0-0.4,0-0.6,0c5.5,0.6,9,6.8,6.7,12.2l-6.5,11.4
			c-0.1,0.2-0.1,0.5,0,0.8l0,0c0.3,0.5,1.5,0.5,1.8,0l6.9-12.1C454,545.8,450.2,539.4,444.4,539.2z"/>
		
			<linearGradient id="SVGID_11_" gradientUnits="userSpaceOnUse" x1="1051.9647" y1="213.1682" x2="1051.9647" y2="221.8982" gradientTransform="matrix(1 0 0 -1 -610.91 765.18)">
			<stop  offset="0" style="stop-color:#7BB062"/>
			<stop  offset="0.22" style="stop-color:#78AB5F"/>
			<stop  offset="0.48" style="stop-color:#6D9D57"/>
			<stop  offset="0.76" style="stop-color:#5D8549"/>
			<stop  offset="1" style="stop-color:#4A6A3A"/>
		</linearGradient>
		<path class="st12" d="M442.7,552c0.3,0,0.5,0,0.8-0.1c-1.9-0.4-3.3-2.2-3.3-4.3s1.4-3.9,3.3-4.3c-0.3-0.1-0.5-0.1-0.8-0.1
			c-2.3,0-4.1,2-4.1,4.4S440.5,552,442.7,552z"/>
	</g>
	<text transform="matrix(1 0 0 1 430.6126 577.2682)" class="st4 st5 st6">Laon</text>
</g>
<g id="Liévin">
	<g>
		
			<linearGradient id="SVGID_12_" gradientUnits="userSpaceOnUse" x1="882.5771" y1="483.4904" x2="898.2446" y2="489.8205" gradientTransform="matrix(1 0 0 -1 -610.91 765.18)">
			<stop  offset="0" style="stop-color:#4A6A3A"/>
			<stop  offset="0.13" style="stop-color:#5C8449"/>
			<stop  offset="0.28" style="stop-color:#6A9754"/>
			<stop  offset="0.44" style="stop-color:#74A55C"/>
			<stop  offset="0.65" style="stop-color:#79AE61"/>
			<stop  offset="1" style="stop-color:#7BB062"/>
		</linearGradient>
		
			<linearGradient id="SVGID_13_" gradientUnits="userSpaceOnUse" x1="880.3347" y1="485.9141" x2="898.2772" y2="485.9141" gradientTransform="matrix(1 0 0 -1 -610.91 765.18)">
			<stop  offset="0" style="stop-color:#006C9B"/>
			<stop  offset="3.000000e-02" style="stop-color:#00719F"/>
			<stop  offset="0.19" style="stop-color:#0084B0"/>
			<stop  offset="0.38" style="stop-color:#0092BC"/>
			<stop  offset="0.61" style="stop-color:#009BC3"/>
			<stop  offset="1" style="stop-color:#009DC5"/>
		</linearGradient>
		<path class="st13" d="M278.4,266.9c-0.1,0-0.2,0-0.2,0c-0.1,0-0.2,0-0.2,0c-5.8,0.2-9.6,6.6-7.3,12.3l6.9,12.1
			c0.3,0.5,1.5,0.5,1.8,0l6.9-12.1C288.6,273.5,284.2,267.1,278.4,266.9z M277.3,279.7c-2.3,0-4.1-2-4.1-4.4s1.8-4.4,4.1-4.4
			s4.1,2,4.1,4.4C281.4,277.7,279.6,279.7,277.3,279.7L277.3,279.7z"/>
		
			<linearGradient id="SVGID_14_" gradientUnits="userSpaceOnUse" x1="893.0333" y1="473.5451" x2="893.0333" y2="498.2833" gradientTransform="matrix(1 0 0 -1 -610.91 765.18)">
			<stop  offset="0" style="stop-color:#7BB062"/>
			<stop  offset="0.21" style="stop-color:#75A85D"/>
			<stop  offset="0.55" style="stop-color:#669251"/>
			<stop  offset="0.95" style="stop-color:#4D6F3D"/>
			<stop  offset="1" style="stop-color:#4A6A3A"/>
		</linearGradient>
		<path class="st14" d="M278.9,266.9c-0.1,0-0.7,0-0.8,0c-0.1,0-0.2,0-0.2,0c-0.2,0-0.4,0-0.6,0c5.5,0.6,9,6.8,6.7,12.2l-6.5,11.4
			c-0.1,0.2-0.1,0.5,0,0.8l0,0c0.3,0.5,1.5,0.5,1.8,0l6.9-12.1C288.6,273.5,284.8,267.1,278.9,266.9z"/>
		
			<linearGradient id="SVGID_15_" gradientUnits="userSpaceOnUse" x1="886.5557" y1="485.4957" x2="886.5557" y2="494.2257" gradientTransform="matrix(1 0 0 -1 -610.91 765.18)">
			<stop  offset="0" style="stop-color:#7BB062"/>
			<stop  offset="0.22" style="stop-color:#78AB5F"/>
			<stop  offset="0.48" style="stop-color:#6D9D57"/>
			<stop  offset="0.76" style="stop-color:#5D8549"/>
			<stop  offset="1" style="stop-color:#4A6A3A"/>
		</linearGradient>
		<path class="st15" d="M277.3,279.7c0.3,0,0.5,0,0.8-0.1c-1.9-0.4-3.3-2.2-3.3-4.3c0-2.1,1.4-3.9,3.3-4.3c-0.3-0.1-0.5-0.1-0.8-0.1
			c-2.3,0-4.1,2-4.1,4.4C273.2,277.7,275,279.7,277.3,279.7z"/>
	</g>
	<text transform="matrix(1 0 0 1 262.0056 306.1667)" class="st4 st5 st6">Liévin</text>
</g>
<g id="Saint-Quentin">
	<g>
		
			<linearGradient id="SVGID_16_" gradientUnits="userSpaceOnUse" x1="989.4416" y1="289.2621" x2="1005.1091" y2="295.5922" gradientTransform="matrix(1 0 0 -1 -610.91 765.18)">
			<stop  offset="0" style="stop-color:#4A6A3A"/>
			<stop  offset="0.13" style="stop-color:#5C8449"/>
			<stop  offset="0.28" style="stop-color:#6A9754"/>
			<stop  offset="0.44" style="stop-color:#74A55C"/>
			<stop  offset="0.65" style="stop-color:#79AE61"/>
			<stop  offset="1" style="stop-color:#7BB062"/>
		</linearGradient>
		
			<linearGradient id="SVGID_17_" gradientUnits="userSpaceOnUse" x1="987.1991" y1="291.6858" x2="1005.1417" y2="291.6858" gradientTransform="matrix(1 0 0 -1 -610.91 765.18)">
			<stop  offset="0" style="stop-color:#006C9B"/>
			<stop  offset="3.000000e-02" style="stop-color:#00719F"/>
			<stop  offset="0.19" style="stop-color:#0084B0"/>
			<stop  offset="0.38" style="stop-color:#0092BC"/>
			<stop  offset="0.61" style="stop-color:#009BC3"/>
			<stop  offset="1" style="stop-color:#009DC5"/>
		</linearGradient>
		<path class="st16" d="M385.2,461.1c-0.1,0-0.2,0-0.2,0c-0.1,0-0.2,0-0.2,0c-5.8,0.2-9.6,6.6-7.3,12.3l6.9,12.1
			c0.3,0.5,1.5,0.5,1.8,0l6.9-12.1C395.5,467.7,391.1,461.3,385.2,461.1z M384.2,473.9c-2.3,0-4.1-2-4.1-4.4c0-2.4,1.8-4.4,4.1-4.4
			s4.1,2,4.1,4.4C388.3,472,386.5,473.9,384.2,473.9L384.2,473.9z"/>
		
			<linearGradient id="SVGID_18_" gradientUnits="userSpaceOnUse" x1="999.8978" y1="279.3168" x2="999.8978" y2="304.055" gradientTransform="matrix(1 0 0 -1 -610.91 765.18)">
			<stop  offset="0" style="stop-color:#7BB062"/>
			<stop  offset="0.21" style="stop-color:#75A85D"/>
			<stop  offset="0.55" style="stop-color:#669251"/>
			<stop  offset="0.95" style="stop-color:#4D6F3D"/>
			<stop  offset="1" style="stop-color:#4A6A3A"/>
		</linearGradient>
		<path class="st17" d="M385.8,461.1c-0.1,0-0.7,0-0.8,0s-0.2,0-0.2,0c-0.2,0-0.4,0-0.6,0c5.5,0.6,9,6.8,6.7,12.2l-6.5,11.4
			c-0.1,0.2-0.1,0.5,0,0.8l0,0c0.3,0.5,1.5,0.5,1.8,0l6.9-12.1C395.5,467.7,391.7,461.3,385.8,461.1z"/>
		
			<linearGradient id="SVGID_19_" gradientUnits="userSpaceOnUse" x1="993.4202" y1="291.2674" x2="993.4202" y2="299.9974" gradientTransform="matrix(1 0 0 -1 -610.91 765.18)">
			<stop  offset="0" style="stop-color:#7BB062"/>
			<stop  offset="0.22" style="stop-color:#78AB5F"/>
			<stop  offset="0.48" style="stop-color:#6D9D57"/>
			<stop  offset="0.76" style="stop-color:#5D8549"/>
			<stop  offset="1" style="stop-color:#4A6A3A"/>
		</linearGradient>
		<path class="st18" d="M384.2,473.9c0.3,0,0.5,0,0.8-0.1c-1.9-0.4-3.3-2.2-3.3-4.3c0-2.1,1.4-3.9,3.3-4.3c-0.3-0.1-0.5-0.1-0.8-0.1
			c-2.3,0-4.1,2-4.1,4.4C380.1,472,381.9,473.9,384.2,473.9z"/>
	</g>
	<text transform="matrix(1 0 0 1 346.7115 499.3781)" class="st4 st5 st6">Saint Quentin</text>
</g>
<g id="Senlis">
	<g>
		
			<linearGradient id="SVGID_20_" gradientUnits="userSpaceOnUse" x1="845.1406" y1="84.959" x2="860.8082" y2="91.2891" gradientTransform="matrix(1 0 0 -1 -610.91 765.18)">
			<stop  offset="0" style="stop-color:#4A6A3A"/>
			<stop  offset="0.13" style="stop-color:#5C8449"/>
			<stop  offset="0.28" style="stop-color:#6A9754"/>
			<stop  offset="0.44" style="stop-color:#74A55C"/>
			<stop  offset="0.65" style="stop-color:#79AE61"/>
			<stop  offset="1" style="stop-color:#7BB062"/>
		</linearGradient>
		
			<linearGradient id="SVGID_21_" gradientUnits="userSpaceOnUse" x1="842.8982" y1="87.3827" x2="860.8407" y2="87.3827" gradientTransform="matrix(1 0 0 -1 -610.91 765.18)">
			<stop  offset="0" style="stop-color:#006C9B"/>
			<stop  offset="3.000000e-02" style="stop-color:#00719F"/>
			<stop  offset="0.19" style="stop-color:#0084B0"/>
			<stop  offset="0.38" style="stop-color:#0092BC"/>
			<stop  offset="0.61" style="stop-color:#009BC3"/>
			<stop  offset="1" style="stop-color:#009DC5"/>
		</linearGradient>
		<path class="st19" d="M240.9,665.4c-0.1,0-0.2,0-0.2,0s-0.2,0-0.2,0c-5.8,0.2-9.6,6.6-7.3,12.3l6.9,12.1c0.3,0.5,1.5,0.5,1.8,0
			l6.9-12.1C251.2,672,246.8,665.6,240.9,665.4z M239.9,678.2c-2.3,0-4.1-2-4.1-4.4s1.8-4.4,4.1-4.4s4.1,2,4.1,4.4
			C244,676.3,242.2,678.2,239.9,678.2L239.9,678.2z"/>
		
			<linearGradient id="SVGID_22_" gradientUnits="userSpaceOnUse" x1="855.5969" y1="75.0137" x2="855.5969" y2="99.7519" gradientTransform="matrix(1 0 0 -1 -610.91 765.18)">
			<stop  offset="0" style="stop-color:#7BB062"/>
			<stop  offset="0.21" style="stop-color:#75A85D"/>
			<stop  offset="0.55" style="stop-color:#669251"/>
			<stop  offset="0.95" style="stop-color:#4D6F3D"/>
			<stop  offset="1" style="stop-color:#4A6A3A"/>
		</linearGradient>
		<path class="st20" d="M241.5,665.4c-0.1,0-0.7,0-0.8,0c-0.1,0-0.2,0-0.2,0c-0.2,0-0.4,0-0.6,0c5.5,0.6,9,6.8,6.7,12.2l-6.5,11.4
			c-0.1,0.2-0.1,0.5,0,0.8l0,0c0.3,0.5,1.5,0.5,1.8,0l6.9-12.1C251.2,672,247.4,665.6,241.5,665.4z"/>
		
			<linearGradient id="SVGID_23_" gradientUnits="userSpaceOnUse" x1="849.1193" y1="86.9643" x2="849.1193" y2="95.6943" gradientTransform="matrix(1 0 0 -1 -610.91 765.18)">
			<stop  offset="0" style="stop-color:#7BB062"/>
			<stop  offset="0.22" style="stop-color:#78AB5F"/>
			<stop  offset="0.48" style="stop-color:#6D9D57"/>
			<stop  offset="0.76" style="stop-color:#5D8549"/>
			<stop  offset="1" style="stop-color:#4A6A3A"/>
		</linearGradient>
		<path class="st21" d="M239.9,678.2c0.3,0,0.5,0,0.8-0.1c-1.9-0.4-3.3-2.2-3.3-4.3c0-2.1,1.4-3.9,3.3-4.3c-0.3-0.1-0.5-0.1-0.8-0.1
			c-2.3,0-4.1,2-4.1,4.4C235.8,676.3,237.6,678.2,239.9,678.2z"/>
	</g>
	<text transform="matrix(1 0 0 1 249.4308 698.9495)" class="st4 st5 st6">Senlis</text>
</g>
<g id="Valentienne">
	<g>
		
			<linearGradient id="SVGID_24_" gradientUnits="userSpaceOnUse" x1="1039.4846" y1="442.2203" x2="1055.1521" y2="448.5504" gradientTransform="matrix(1 0 0 -1 -610.91 765.18)">
			<stop  offset="0" style="stop-color:#4A6A3A"/>
			<stop  offset="0.13" style="stop-color:#5C8449"/>
			<stop  offset="0.28" style="stop-color:#6A9754"/>
			<stop  offset="0.44" style="stop-color:#74A55C"/>
			<stop  offset="0.65" style="stop-color:#79AE61"/>
			<stop  offset="1" style="stop-color:#7BB062"/>
		</linearGradient>
		
			<linearGradient id="SVGID_25_" gradientUnits="userSpaceOnUse" x1="1037.2422" y1="444.644" x2="1055.1847" y2="444.644" gradientTransform="matrix(1 0 0 -1 -610.91 765.18)">
			<stop  offset="0" style="stop-color:#006C9B"/>
			<stop  offset="3.000000e-02" style="stop-color:#00719F"/>
			<stop  offset="0.19" style="stop-color:#0084B0"/>
			<stop  offset="0.38" style="stop-color:#0092BC"/>
			<stop  offset="0.61" style="stop-color:#009BC3"/>
			<stop  offset="1" style="stop-color:#009DC5"/>
		</linearGradient>
		<path class="st22" d="M435.3,308.2c-0.1,0-0.2,0-0.2,0c-0.1,0-0.2,0-0.2,0c-5.8,0.2-9.6,6.6-7.3,12.3l6.9,12.1
			c0.3,0.5,1.5,0.5,1.8,0l6.9-12.1C445.5,314.8,441.1,308.3,435.3,308.2z M434.2,321c-2.3,0-4.1-2-4.1-4.4s1.8-4.4,4.1-4.4
			s4.1,2,4.1,4.4C438.3,319,436.5,321,434.2,321L434.2,321z"/>
		
			<linearGradient id="SVGID_26_" gradientUnits="userSpaceOnUse" x1="1049.9409" y1="432.275" x2="1049.9409" y2="457.0132" gradientTransform="matrix(1 0 0 -1 -610.91 765.18)">
			<stop  offset="0" style="stop-color:#7BB062"/>
			<stop  offset="0.21" style="stop-color:#75A85D"/>
			<stop  offset="0.55" style="stop-color:#669251"/>
			<stop  offset="0.95" style="stop-color:#4D6F3D"/>
			<stop  offset="1" style="stop-color:#4A6A3A"/>
		</linearGradient>
		<path class="st23" d="M435.9,308.2c-0.1,0-0.7,0-0.8,0c-0.1,0-0.2,0-0.2,0c-0.2,0-0.4,0-0.6,0c5.5,0.6,9,6.8,6.7,12.2l-6.5,11.4
			c-0.1,0.2-0.1,0.5,0,0.8l0,0c0.3,0.5,1.5,0.5,1.8,0l6.9-12.1C445.5,314.8,441.7,308.3,435.9,308.2z"/>
		
			<linearGradient id="SVGID_27_" gradientUnits="userSpaceOnUse" x1="1043.4633" y1="444.2256" x2="1043.4633" y2="452.9556" gradientTransform="matrix(1 0 0 -1 -610.91 765.18)">
			<stop  offset="0" style="stop-color:#7BB062"/>
			<stop  offset="0.22" style="stop-color:#78AB5F"/>
			<stop  offset="0.48" style="stop-color:#6D9D57"/>
			<stop  offset="0.76" style="stop-color:#5D8549"/>
			<stop  offset="1" style="stop-color:#4A6A3A"/>
		</linearGradient>
		<path class="st24" d="M434.2,321c0.3,0,0.5,0,0.8-0.1c-1.9-0.4-3.3-2.2-3.3-4.3c0-2.1,1.4-3.9,3.3-4.3c-0.3-0.1-0.5-0.1-0.8-0.1
			c-2.3,0-4.1,2-4.1,4.4C430.1,319,431.9,321,434.2,321z"/>
	</g>
	<text transform="matrix(1 0 0 1 401.0613 346.6933)" class="st4 st5 st6">Valencienne</text>
</g>
<g id="Villeneuve-Dasq">
	<g>
		
			<linearGradient id="SVGID_28_" gradientUnits="userSpaceOnUse" x1="968.7414" y1="508.2289" x2="984.4089" y2="514.559" gradientTransform="matrix(1 0 0 -1 -610.91 765.18)">
			<stop  offset="0" style="stop-color:#4A6A3A"/>
			<stop  offset="0.13" style="stop-color:#5C8449"/>
			<stop  offset="0.28" style="stop-color:#6A9754"/>
			<stop  offset="0.44" style="stop-color:#74A55C"/>
			<stop  offset="0.65" style="stop-color:#79AE61"/>
			<stop  offset="1" style="stop-color:#7BB062"/>
		</linearGradient>
		
			<linearGradient id="SVGID_29_" gradientUnits="userSpaceOnUse" x1="966.499" y1="510.6525" x2="984.4415" y2="510.6525" gradientTransform="matrix(1 0 0 -1 -610.91 765.18)">
			<stop  offset="0" style="stop-color:#006C9B"/>
			<stop  offset="3.000000e-02" style="stop-color:#00719F"/>
			<stop  offset="0.19" style="stop-color:#0084B0"/>
			<stop  offset="0.38" style="stop-color:#0092BC"/>
			<stop  offset="0.61" style="stop-color:#009BC3"/>
			<stop  offset="1" style="stop-color:#009DC5"/>
		</linearGradient>
		<path class="st25" d="M364.5,242.2c-0.1,0-0.2,0-0.2,0c-0.1,0-0.2,0-0.2,0c-5.8,0.2-9.6,6.6-7.3,12.3l6.9,12.1
			c0.3,0.5,1.5,0.5,1.8,0l6.9-12.1C374.8,248.8,370.4,242.3,364.5,242.2z M363.5,254.9c-2.3,0-4.1-2-4.1-4.4s1.8-4.4,4.1-4.4
			s4.1,2,4.1,4.4C367.6,253,365.8,254.9,363.5,254.9L363.5,254.9z"/>
		
			<linearGradient id="SVGID_30_" gradientUnits="userSpaceOnUse" x1="979.1976" y1="498.2836" x2="979.1976" y2="523.0218" gradientTransform="matrix(1 0 0 -1 -610.91 765.18)">
			<stop  offset="0" style="stop-color:#7BB062"/>
			<stop  offset="0.21" style="stop-color:#75A85D"/>
			<stop  offset="0.55" style="stop-color:#669251"/>
			<stop  offset="0.95" style="stop-color:#4D6F3D"/>
			<stop  offset="1" style="stop-color:#4A6A3A"/>
		</linearGradient>
		<path class="st26" d="M365.1,242.2c-0.1,0-0.7,0-0.8,0s-0.2,0-0.2,0c-0.2,0-0.4,0-0.6,0c5.5,0.6,9,6.8,6.7,12.2l-6.5,11.4
			c-0.1,0.2-0.1,0.5,0,0.8l0,0c0.3,0.5,1.5,0.5,1.8,0l6.9-12.1C374.8,248.8,371,242.3,365.1,242.2z"/>
		
			<linearGradient id="SVGID_31_" gradientUnits="userSpaceOnUse" x1="972.72" y1="510.2342" x2="972.72" y2="518.9642" gradientTransform="matrix(1 0 0 -1 -610.91 765.18)">
			<stop  offset="0" style="stop-color:#7BB062"/>
			<stop  offset="0.22" style="stop-color:#78AB5F"/>
			<stop  offset="0.48" style="stop-color:#6D9D57"/>
			<stop  offset="0.76" style="stop-color:#5D8549"/>
			<stop  offset="1" style="stop-color:#4A6A3A"/>
		</linearGradient>
		<path class="st27" d="M363.5,254.9c0.3,0,0.5,0,0.8-0.1c-1.9-0.4-3.3-2.2-3.3-4.3c0-2.1,1.4-3.9,3.3-4.3c-0.3-0.1-0.5-0.1-0.8-0.1
			c-2.3,0-4.1,2-4.1,4.4C359.4,253,361.2,254.9,363.5,254.9z"/>
	</g>
	<text transform="matrix(1 0 0 1 337.1822 281.266)" class="st4 st5 st6">Villeneuve D’Asq</text>
</g>
<g id="Roubaix">
	<g>
		
			<linearGradient id="SVGID_32_" gradientUnits="userSpaceOnUse" x1="969.6582" y1="549.2781" x2="985.3257" y2="555.6082" gradientTransform="matrix(1 0 0 -1 -610.91 765.18)">
			<stop  offset="0" style="stop-color:#4A6A3A"/>
			<stop  offset="0.13" style="stop-color:#5C8449"/>
			<stop  offset="0.28" style="stop-color:#6A9754"/>
			<stop  offset="0.44" style="stop-color:#74A55C"/>
			<stop  offset="0.65" style="stop-color:#79AE61"/>
			<stop  offset="1" style="stop-color:#7BB062"/>
		</linearGradient>
		
			<linearGradient id="SVGID_33_" gradientUnits="userSpaceOnUse" x1="967.4158" y1="551.7018" x2="985.3583" y2="551.7018" gradientTransform="matrix(1 0 0 -1 -610.91 765.18)">
			<stop  offset="0" style="stop-color:#006C9B"/>
			<stop  offset="3.000000e-02" style="stop-color:#00719F"/>
			<stop  offset="0.19" style="stop-color:#0084B0"/>
			<stop  offset="0.38" style="stop-color:#0092BC"/>
			<stop  offset="0.61" style="stop-color:#009BC3"/>
			<stop  offset="1" style="stop-color:#009DC5"/>
		</linearGradient>
		<path class="st28" d="M365.4,201.1c-0.1,0-0.2,0-0.2,0c-0.1,0-0.2,0-0.2,0c-5.8,0.2-9.6,6.6-7.3,12.3l6.9,12.1
			c0.3,0.5,1.5,0.5,1.8,0l6.9-12.1C375.7,207.7,371.3,201.3,365.4,201.1z M364.4,213.9c-2.3,0-4.1-2-4.1-4.4c0-2.4,1.8-4.4,4.1-4.4
			s4.1,2,4.1,4.4C368.5,211.9,366.7,213.9,364.4,213.9L364.4,213.9z"/>
		
			<linearGradient id="SVGID_34_" gradientUnits="userSpaceOnUse" x1="980.1144" y1="539.3328" x2="980.1144" y2="564.071" gradientTransform="matrix(1 0 0 -1 -610.91 765.18)">
			<stop  offset="0" style="stop-color:#7BB062"/>
			<stop  offset="0.21" style="stop-color:#75A85D"/>
			<stop  offset="0.55" style="stop-color:#669251"/>
			<stop  offset="0.95" style="stop-color:#4D6F3D"/>
			<stop  offset="1" style="stop-color:#4A6A3A"/>
		</linearGradient>
		<path class="st29" d="M366,201.1c-0.1,0-0.7,0-0.8,0c-0.1,0-0.2,0-0.2,0c-0.2,0-0.4,0-0.6,0c5.5,0.6,9,6.8,6.7,12.2l-6.5,11.4
			c-0.1,0.2-0.1,0.5,0,0.8l0,0c0.3,0.5,1.5,0.5,1.8,0l6.9-12.1C375.7,207.7,371.9,201.3,366,201.1z"/>
		
			<linearGradient id="SVGID_35_" gradientUnits="userSpaceOnUse" x1="973.6368" y1="551.2834" x2="973.6368" y2="560.0134" gradientTransform="matrix(1 0 0 -1 -610.91 765.18)">
			<stop  offset="0" style="stop-color:#7BB062"/>
			<stop  offset="0.22" style="stop-color:#78AB5F"/>
			<stop  offset="0.48" style="stop-color:#6D9D57"/>
			<stop  offset="0.76" style="stop-color:#5D8549"/>
			<stop  offset="1" style="stop-color:#4A6A3A"/>
		</linearGradient>
		<path class="st30" d="M364.4,213.9c0.3,0,0.5,0,0.8-0.1c-1.9-0.4-3.3-2.2-3.3-4.3c0-2.1,1.4-3.9,3.3-4.3c-0.3-0.1-0.5-0.1-0.8-0.1
			c-2.3,0-4.1,2-4.1,4.4S362.1,213.9,364.4,213.9z"/>
	</g>
	<text transform="matrix(1 0 0 1 341.6379 238.9386)" class="st4 st5 st6">Roubaix</text>
</g>
<g id="Amiens">
	<g>
		
			<linearGradient id="SVGID_36_" gradientUnits="userSpaceOnUse" x1="792.2288" y1="297.6851" x2="807.8963" y2="304.0151" gradientTransform="matrix(1 0 0 -1 -610.91 765.18)">
			<stop  offset="0" style="stop-color:#4A6A3A"/>
			<stop  offset="0.13" style="stop-color:#5C8449"/>
			<stop  offset="0.28" style="stop-color:#6A9754"/>
			<stop  offset="0.44" style="stop-color:#74A55C"/>
			<stop  offset="0.65" style="stop-color:#79AE61"/>
			<stop  offset="1" style="stop-color:#7BB062"/>
		</linearGradient>
		
			<linearGradient id="SVGID_37_" gradientUnits="userSpaceOnUse" x1="789.9863" y1="300.1087" x2="807.9289" y2="300.1087" gradientTransform="matrix(1 0 0 -1 -610.91 765.18)">
			<stop  offset="0" style="stop-color:#006C9B"/>
			<stop  offset="3.000000e-02" style="stop-color:#00719F"/>
			<stop  offset="0.19" style="stop-color:#0084B0"/>
			<stop  offset="0.38" style="stop-color:#0092BC"/>
			<stop  offset="0.61" style="stop-color:#009BC3"/>
			<stop  offset="1" style="stop-color:#009DC5"/>
		</linearGradient>
		<path class="st31" d="M188,452.7c-0.1,0-0.2,0-0.2,0s-0.2,0-0.2,0c-5.8,0.2-9.6,6.6-7.3,12.3l6.9,12.1c0.3,0.5,1.5,0.5,1.8,0
			l6.9-12.1C198.2,459.3,193.9,452.9,188,452.7z M187,465.5c-2.3,0-4.1-2-4.1-4.4c0-2.4,1.8-4.4,4.1-4.4s4.1,2,4.1,4.4
			S189.2,465.5,187,465.5L187,465.5z"/>
		
			<linearGradient id="SVGID_38_" gradientUnits="userSpaceOnUse" x1="802.6851" y1="287.7397" x2="802.6851" y2="312.4779" gradientTransform="matrix(1 0 0 -1 -610.91 765.18)">
			<stop  offset="0" style="stop-color:#7BB062"/>
			<stop  offset="0.21" style="stop-color:#75A85D"/>
			<stop  offset="0.55" style="stop-color:#669251"/>
			<stop  offset="0.95" style="stop-color:#4D6F3D"/>
			<stop  offset="1" style="stop-color:#4A6A3A"/>
		</linearGradient>
		<path class="st32" d="M188.6,452.7c-0.1,0-0.7,0-0.8,0c-0.1,0-0.2,0-0.2,0c-0.2,0-0.4,0-0.6,0c5.5,0.6,9,6.8,6.7,12.2l-6.5,11.4
			c-0.1,0.2-0.1,0.5,0,0.8l0,0c0.3,0.5,1.5,0.5,1.8,0l6.9-12.1C198.2,459.3,194.4,452.9,188.6,452.7z"/>
		
			<linearGradient id="SVGID_39_" gradientUnits="userSpaceOnUse" x1="796.2074" y1="299.6903" x2="796.2074" y2="308.4203" gradientTransform="matrix(1 0 0 -1 -610.91 765.18)">
			<stop  offset="0" style="stop-color:#7BB062"/>
			<stop  offset="0.22" style="stop-color:#78AB5F"/>
			<stop  offset="0.48" style="stop-color:#6D9D57"/>
			<stop  offset="0.76" style="stop-color:#5D8549"/>
			<stop  offset="1" style="stop-color:#4A6A3A"/>
		</linearGradient>
		<path class="st33" d="M187,465.5c0.3,0,0.5,0,0.8-0.1c-1.9-0.4-3.3-2.2-3.3-4.3s1.4-3.9,3.3-4.3c-0.3-0.1-0.5-0.1-0.8-0.1
			c-2.3,0-4.1,2-4.1,4.4C182.8,463.5,184.7,465.5,187,465.5z"/>
	</g>
	<text transform="matrix(1 0 0 1 167.1603 491.0375)" class="st4 st5 st6">Amiens</text>
</g>
<g id="Arras">
	<g>
		
			<linearGradient id="SVGID_40_" gradientUnits="userSpaceOnUse" x1="885.3273" y1="417.4819" x2="900.9948" y2="423.812" gradientTransform="matrix(1 0 0 -1 -610.91 765.18)">
			<stop  offset="0" style="stop-color:#4A6A3A"/>
			<stop  offset="0.13" style="stop-color:#5C8449"/>
			<stop  offset="0.28" style="stop-color:#6A9754"/>
			<stop  offset="0.44" style="stop-color:#74A55C"/>
			<stop  offset="0.65" style="stop-color:#79AE61"/>
			<stop  offset="1" style="stop-color:#7BB062"/>
		</linearGradient>
		
			<linearGradient id="SVGID_41_" gradientUnits="userSpaceOnUse" x1="883.0848" y1="419.9055" x2="901.0274" y2="419.9055" gradientTransform="matrix(1 0 0 -1 -610.91 765.18)">
			<stop  offset="0" style="stop-color:#006C9B"/>
			<stop  offset="3.000000e-02" style="stop-color:#00719F"/>
			<stop  offset="0.19" style="stop-color:#0084B0"/>
			<stop  offset="0.38" style="stop-color:#0092BC"/>
			<stop  offset="0.61" style="stop-color:#009BC3"/>
			<stop  offset="1" style="stop-color:#009DC5"/>
		</linearGradient>
		<path class="st34" d="M281.1,332.9c-0.1,0-0.2,0-0.2,0c-0.1,0-0.2,0-0.2,0c-5.8,0.2-9.6,6.6-7.3,12.3l6.9,12.1
			c0.3,0.5,1.5,0.5,1.8,0l6.9-12.1C291.3,339.5,287,333.1,281.1,332.9z M280.1,345.7c-2.3,0-4.1-2-4.1-4.4s1.8-4.4,4.1-4.4
			s4.1,2,4.1,4.4C284.2,343.7,282.3,345.7,280.1,345.7L280.1,345.7z"/>
		
			<linearGradient id="SVGID_42_" gradientUnits="userSpaceOnUse" x1="895.7835" y1="407.5366" x2="895.7835" y2="432.2748" gradientTransform="matrix(1 0 0 -1 -610.91 765.18)">
			<stop  offset="0" style="stop-color:#7BB062"/>
			<stop  offset="0.21" style="stop-color:#75A85D"/>
			<stop  offset="0.55" style="stop-color:#669251"/>
			<stop  offset="0.95" style="stop-color:#4D6F3D"/>
			<stop  offset="1" style="stop-color:#4A6A3A"/>
		</linearGradient>
		<path class="st35" d="M281.7,332.9c-0.1,0-0.7,0-0.8,0c-0.1,0-0.2,0-0.2,0c-0.2,0-0.4,0-0.6,0c5.5,0.6,9,6.8,6.7,12.2l-6.5,11.4
			c-0.1,0.2-0.1,0.5,0,0.8l0,0c0.3,0.5,1.5,0.5,1.8,0l6.9-12.1C291.3,339.5,287.5,333.1,281.7,332.9z"/>
		
			<linearGradient id="SVGID_43_" gradientUnits="userSpaceOnUse" x1="889.3059" y1="419.4872" x2="889.3059" y2="428.2172" gradientTransform="matrix(1 0 0 -1 -610.91 765.18)">
			<stop  offset="0" style="stop-color:#7BB062"/>
			<stop  offset="0.22" style="stop-color:#78AB5F"/>
			<stop  offset="0.48" style="stop-color:#6D9D57"/>
			<stop  offset="0.76" style="stop-color:#5D8549"/>
			<stop  offset="1" style="stop-color:#4A6A3A"/>
		</linearGradient>
		<path class="st36" d="M280.1,345.7c0.3,0,0.5,0,0.8-0.1c-1.9-0.4-3.3-2.2-3.3-4.3c0-2.1,1.4-3.9,3.3-4.3c-0.3-0.1-0.5-0.1-0.8-0.1
			c-2.3,0-4.1,2-4.1,4.4C275.9,343.7,277.8,345.7,280.1,345.7z"/>
	</g>
	<text transform="matrix(1 0 0 1 265.9181 371.6529)" class="st4 st5 st6">Arras</text>
</g>
<g id="Beauvais">
	<g>
		
			<linearGradient id="SVGID_44_" gradientUnits="userSpaceOnUse" x1="750.8701" y1="159.3276" x2="766.5376" y2="165.6577" gradientTransform="matrix(1 0 0 -1 -610.91 765.18)">
			<stop  offset="0" style="stop-color:#4A6A3A"/>
			<stop  offset="0.13" style="stop-color:#5C8449"/>
			<stop  offset="0.28" style="stop-color:#6A9754"/>
			<stop  offset="0.44" style="stop-color:#74A55C"/>
			<stop  offset="0.65" style="stop-color:#79AE61"/>
			<stop  offset="1" style="stop-color:#7BB062"/>
		</linearGradient>
		
			<linearGradient id="SVGID_45_" gradientUnits="userSpaceOnUse" x1="748.6276" y1="161.7513" x2="766.5701" y2="161.7513" gradientTransform="matrix(1 0 0 -1 -610.91 765.18)">
			<stop  offset="0" style="stop-color:#006C9B"/>
			<stop  offset="3.000000e-02" style="stop-color:#00719F"/>
			<stop  offset="0.19" style="stop-color:#0084B0"/>
			<stop  offset="0.38" style="stop-color:#0092BC"/>
			<stop  offset="0.61" style="stop-color:#009BC3"/>
			<stop  offset="1" style="stop-color:#009DC5"/>
		</linearGradient>
		<path class="st37" d="M146.7,591.1c-0.1,0-0.2,0-0.2,0s-0.2,0-0.2,0c-5.8,0.2-9.6,6.6-7.3,12.3l6.9,12.1c0.3,0.5,1.5,0.5,1.8,0
			l6.9-12.1C156.9,597.7,152.5,591.2,146.7,591.1z M145.6,603.8c-2.3,0-4.1-2-4.1-4.4c0-2.4,1.8-4.4,4.1-4.4s4.1,2,4.1,4.4
			S147.9,603.8,145.6,603.8L145.6,603.8z"/>
		
			<linearGradient id="SVGID_46_" gradientUnits="userSpaceOnUse" x1="761.3263" y1="149.3823" x2="761.3263" y2="174.1205" gradientTransform="matrix(1 0 0 -1 -610.91 765.18)">
			<stop  offset="0" style="stop-color:#7BB062"/>
			<stop  offset="0.21" style="stop-color:#75A85D"/>
			<stop  offset="0.55" style="stop-color:#669251"/>
			<stop  offset="0.95" style="stop-color:#4D6F3D"/>
			<stop  offset="1" style="stop-color:#4A6A3A"/>
		</linearGradient>
		<path class="st38" d="M147.2,591.1c-0.1,0-0.7,0-0.8,0s-0.2,0-0.2,0c-0.2,0-0.4,0-0.6,0c5.5,0.6,9,6.8,6.7,12.2l-6.5,11.4
			c-0.1,0.2-0.1,0.5,0,0.8l0,0c0.3,0.5,1.5,0.5,1.8,0l6.9-12.1C156.9,597.7,153.1,591.2,147.2,591.1z"/>
		
			<linearGradient id="SVGID_47_" gradientUnits="userSpaceOnUse" x1="754.8487" y1="161.3329" x2="754.8487" y2="170.0629" gradientTransform="matrix(1 0 0 -1 -610.91 765.18)">
			<stop  offset="0" style="stop-color:#7BB062"/>
			<stop  offset="0.22" style="stop-color:#78AB5F"/>
			<stop  offset="0.48" style="stop-color:#6D9D57"/>
			<stop  offset="0.76" style="stop-color:#5D8549"/>
			<stop  offset="1" style="stop-color:#4A6A3A"/>
		</linearGradient>
		<path class="st39" d="M145.6,603.8c0.3,0,0.5,0,0.8-0.1c-1.9-0.4-3.3-2.2-3.3-4.3s1.4-3.9,3.3-4.3c-0.3-0.1-0.5-0.1-0.8-0.1
			c-2.3,0-4.1,2-4.1,4.4S143.3,603.8,145.6,603.8z"/>
	</g>
	<text transform="matrix(1 0 0 1 121.5958 630.7079)" class="st4 st5 st6">Beauvais</text>
</g>
<g id="Compiegne">
	<g>
		
			<linearGradient id="SVGID_48_" gradientUnits="userSpaceOnUse" x1="885.3575" y1="151.0164" x2="901.025" y2="157.3464" gradientTransform="matrix(1 0 0 -1 -610.91 765.18)">
			<stop  offset="0" style="stop-color:#4A6A3A"/>
			<stop  offset="0.13" style="stop-color:#5C8449"/>
			<stop  offset="0.28" style="stop-color:#6A9754"/>
			<stop  offset="0.44" style="stop-color:#74A55C"/>
			<stop  offset="0.65" style="stop-color:#79AE61"/>
			<stop  offset="1" style="stop-color:#7BB062"/>
		</linearGradient>
		
			<linearGradient id="SVGID_49_" gradientUnits="userSpaceOnUse" x1="883.1151" y1="153.44" x2="901.0576" y2="153.44" gradientTransform="matrix(1 0 0 -1 -610.91 765.18)">
			<stop  offset="0" style="stop-color:#006C9B"/>
			<stop  offset="3.000000e-02" style="stop-color:#00719F"/>
			<stop  offset="0.19" style="stop-color:#0084B0"/>
			<stop  offset="0.38" style="stop-color:#0092BC"/>
			<stop  offset="0.61" style="stop-color:#009BC3"/>
			<stop  offset="1" style="stop-color:#009DC5"/>
		</linearGradient>
		<path class="st40" d="M281.1,599.4c-0.1,0-0.2,0-0.2,0c-0.1,0-0.2,0-0.2,0c-5.8,0.2-9.6,6.6-7.3,12.3l6.9,12.1
			c0.3,0.5,1.5,0.5,1.8,0l6.9-12.1C291.4,606,287,599.5,281.1,599.4z M280.1,612.2c-2.3,0-4.1-2-4.1-4.4s1.8-4.4,4.1-4.4
			s4.1,2,4.1,4.4C284.2,610.2,282.4,612.2,280.1,612.2L280.1,612.2z"/>
		
			<linearGradient id="SVGID_50_" gradientUnits="userSpaceOnUse" x1="895.8137" y1="141.071" x2="895.8137" y2="165.8092" gradientTransform="matrix(1 0 0 -1 -610.91 765.18)">
			<stop  offset="0" style="stop-color:#7BB062"/>
			<stop  offset="0.21" style="stop-color:#75A85D"/>
			<stop  offset="0.55" style="stop-color:#669251"/>
			<stop  offset="0.95" style="stop-color:#4D6F3D"/>
			<stop  offset="1" style="stop-color:#4A6A3A"/>
		</linearGradient>
		<path class="st41" d="M281.7,599.4c-0.1,0-0.7,0-0.8,0c-0.1,0-0.2,0-0.2,0c-0.2,0-0.4,0-0.6,0c5.5,0.6,9,6.8,6.7,12.2l-6.5,11.4
			c-0.1,0.2-0.1,0.5,0,0.8l0,0c0.3,0.5,1.5,0.5,1.8,0l6.9-12.1C291.4,606,287.6,599.5,281.7,599.4z"/>
		
			<linearGradient id="SVGID_51_" gradientUnits="userSpaceOnUse" x1="889.3361" y1="153.0216" x2="889.3361" y2="161.7516" gradientTransform="matrix(1 0 0 -1 -610.91 765.18)">
			<stop  offset="0" style="stop-color:#7BB062"/>
			<stop  offset="0.22" style="stop-color:#78AB5F"/>
			<stop  offset="0.48" style="stop-color:#6D9D57"/>
			<stop  offset="0.76" style="stop-color:#5D8549"/>
			<stop  offset="1" style="stop-color:#4A6A3A"/>
		</linearGradient>
		<path class="st42" d="M280.1,612.2c0.3,0,0.5,0,0.8-0.1c-1.9-0.4-3.3-2.2-3.3-4.3c0-2.1,1.4-3.9,3.3-4.3c-0.3-0.1-0.5-0.1-0.8-0.1
			c-2.3,0-4.1,2-4.1,4.4C276,610.2,277.8,612.2,280.1,612.2z"/>
	</g>
	<text transform="matrix(1 0 0 1 250.9468 638.642)" class="st4 st5 st6">Compiègne</text>
</g>
<g id="Dunkerque">
	<g>
		
			<linearGradient id="SVGID_52_" gradientUnits="userSpaceOnUse" x1="826.2347" y1="682.6016" x2="841.9022" y2="688.9317" gradientTransform="matrix(1 0 0 -1 -610.91 765.18)">
			<stop  offset="0" style="stop-color:#4A6A3A"/>
			<stop  offset="0.13" style="stop-color:#5C8449"/>
			<stop  offset="0.28" style="stop-color:#6A9754"/>
			<stop  offset="0.44" style="stop-color:#74A55C"/>
			<stop  offset="0.65" style="stop-color:#79AE61"/>
			<stop  offset="1" style="stop-color:#7BB062"/>
		</linearGradient>
		
			<linearGradient id="SVGID_53_" gradientUnits="userSpaceOnUse" x1="823.9922" y1="685.0253" x2="841.9348" y2="685.0253" gradientTransform="matrix(1 0 0 -1 -610.91 765.18)">
			<stop  offset="0" style="stop-color:#006C9B"/>
			<stop  offset="3.000000e-02" style="stop-color:#00719F"/>
			<stop  offset="0.19" style="stop-color:#0084B0"/>
			<stop  offset="0.38" style="stop-color:#0092BC"/>
			<stop  offset="0.61" style="stop-color:#009BC3"/>
			<stop  offset="1" style="stop-color:#009DC5"/>
		</linearGradient>
		<path class="st43" d="M222,67.8c-0.1,0-0.2,0-0.2,0s-0.2,0-0.2,0c-5.8,0.2-9.6,6.6-7.3,12.3l6.9,12.1c0.3,0.5,1.5,0.5,1.8,0
			l6.9-12.1C232.2,74.4,227.9,67.9,222,67.8z M221,80.6c-2.3,0-4.1-2-4.1-4.4s1.8-4.4,4.1-4.4s4.1,2,4.1,4.4
			C225.1,78.6,223.3,80.6,221,80.6L221,80.6z"/>
		
			<linearGradient id="SVGID_54_" gradientUnits="userSpaceOnUse" x1="836.6909" y1="672.6563" x2="836.6909" y2="697.3945" gradientTransform="matrix(1 0 0 -1 -610.91 765.18)">
			<stop  offset="0" style="stop-color:#7BB062"/>
			<stop  offset="0.21" style="stop-color:#75A85D"/>
			<stop  offset="0.55" style="stop-color:#669251"/>
			<stop  offset="0.95" style="stop-color:#4D6F3D"/>
			<stop  offset="1" style="stop-color:#4A6A3A"/>
		</linearGradient>
		<path class="st44" d="M222.6,67.8c-0.1,0-0.7,0-0.8,0c-0.1,0-0.2,0-0.2,0c-0.2,0-0.4,0-0.6,0c5.5,0.6,9,6.8,6.7,12.2l-6.5,11.4
			c-0.1,0.2-0.1,0.5,0,0.8l0,0c0.3,0.5,1.5,0.5,1.8,0l6.9-12.1C232.2,74.4,228.5,67.9,222.6,67.8z"/>
		
			<linearGradient id="SVGID_55_" gradientUnits="userSpaceOnUse" x1="830.2133" y1="684.6069" x2="830.2133" y2="693.3369" gradientTransform="matrix(1 0 0 -1 -610.91 765.18)">
			<stop  offset="0" style="stop-color:#7BB062"/>
			<stop  offset="0.22" style="stop-color:#78AB5F"/>
			<stop  offset="0.48" style="stop-color:#6D9D57"/>
			<stop  offset="0.76" style="stop-color:#5D8549"/>
			<stop  offset="1" style="stop-color:#4A6A3A"/>
		</linearGradient>
		<path class="st45" d="M221,80.6c0.3,0,0.5,0,0.8-0.1c-1.9-0.4-3.3-2.2-3.3-4.3c0-2.1,1.4-3.9,3.3-4.3c-0.3-0.1-0.5-0.1-0.8-0.1
			c-2.3,0-4.1,2-4.1,4.4S218.7,80.6,221,80.6z"/>
	</g>
	<text transform="matrix(1 0 0 1 186.1603 106.9685)" class="st4 st5 st6">Dunkerque</text>
</g>
<g id="Abbeville">
	<g>
		
			<linearGradient id="SVGID_56_" gradientUnits="userSpaceOnUse" x1="698.3127" y1="373.5698" x2="713.9802" y2="379.8999" gradientTransform="matrix(1 0 0 -1 -610.91 765.18)">
			<stop  offset="0" style="stop-color:#4A6A3A"/>
			<stop  offset="0.13" style="stop-color:#5C8449"/>
			<stop  offset="0.28" style="stop-color:#6A9754"/>
			<stop  offset="0.44" style="stop-color:#74A55C"/>
			<stop  offset="0.65" style="stop-color:#79AE61"/>
			<stop  offset="1" style="stop-color:#7BB062"/>
		</linearGradient>
		
			<linearGradient id="SVGID_57_" gradientUnits="userSpaceOnUse" x1="696.0703" y1="375.9935" x2="714.0128" y2="375.9935" gradientTransform="matrix(1 0 0 -1 -610.91 765.18)">
			<stop  offset="0" style="stop-color:#006C9B"/>
			<stop  offset="3.000000e-02" style="stop-color:#00719F"/>
			<stop  offset="0.19" style="stop-color:#0084B0"/>
			<stop  offset="0.38" style="stop-color:#0092BC"/>
			<stop  offset="0.61" style="stop-color:#009BC3"/>
			<stop  offset="1" style="stop-color:#009DC5"/>
		</linearGradient>
		<path class="st46" d="M94.1,376.8c-0.1,0-0.2,0-0.2,0s-0.2,0-0.2,0c-5.8,0.2-9.6,6.6-7.3,12.3l6.9,12.1c0.3,0.5,1.5,0.5,1.8,0
			l6.9-12.1C104.3,383.4,99.9,377,94.1,376.8z M93.1,389.6c-2.3,0-4.1-2-4.1-4.4c0-2.4,1.8-4.4,4.1-4.4s4.1,2,4.1,4.4
			C97.2,387.7,95.3,389.6,93.1,389.6L93.1,389.6z"/>
		
			<linearGradient id="SVGID_58_" gradientUnits="userSpaceOnUse" x1="708.769" y1="363.6245" x2="708.769" y2="388.3627" gradientTransform="matrix(1 0 0 -1 -610.91 765.18)">
			<stop  offset="0" style="stop-color:#7BB062"/>
			<stop  offset="0.21" style="stop-color:#75A85D"/>
			<stop  offset="0.55" style="stop-color:#669251"/>
			<stop  offset="0.95" style="stop-color:#4D6F3D"/>
			<stop  offset="1" style="stop-color:#4A6A3A"/>
		</linearGradient>
		<path class="st47" d="M94.7,376.8c-0.1,0-0.7,0-0.8,0s-0.2,0-0.2,0c-0.2,0-0.4,0-0.6,0c5.5,0.6,9,6.8,6.7,12.2l-6.5,11.4
			c-0.1,0.2-0.1,0.5,0,0.8l0,0c0.3,0.5,1.5,0.5,1.8,0l6.9-12.1C104.3,383.4,100.5,377,94.7,376.8z"/>
		
			<linearGradient id="SVGID_59_" gradientUnits="userSpaceOnUse" x1="702.2913" y1="375.5751" x2="702.2913" y2="384.3051" gradientTransform="matrix(1 0 0 -1 -610.91 765.18)">
			<stop  offset="0" style="stop-color:#7BB062"/>
			<stop  offset="0.22" style="stop-color:#78AB5F"/>
			<stop  offset="0.48" style="stop-color:#6D9D57"/>
			<stop  offset="0.76" style="stop-color:#5D8549"/>
			<stop  offset="1" style="stop-color:#4A6A3A"/>
		</linearGradient>
		<path class="st48" d="M93.1,389.6c0.3,0,0.5,0,0.8-0.1c-1.9-0.4-3.3-2.2-3.3-4.3c0-2.1,1.4-3.9,3.3-4.3c-0.3-0.1-0.5-0.1-0.8-0.1
			c-2.3,0-4.1,2-4.1,4.4C88.9,387.7,90.8,389.6,93.1,389.6z"/>
	</g>
	<text transform="matrix(1 0 0 1 68.3098 416.9448)" class="st4 st5 st6">Abbeville</text>
</g>
</svg>