<?xml version="1.0" encoding="UTF-8" standalone="no"?>
<!-- Created with Inkscape (http://www.inkscape.org/) -->

<svg
   width="210mm"
   height="297mm"
   viewBox="0 0 210 297"
   version="1.1"
   id="svg1"
   inkscape:version="1.3.2 (091e20e, 2023-11-25, custom)"
   sodipodi:docname="hauts-de-france-perso.svg"
   xmlns:inkscape="http://www.inkscape.org/namespaces/inkscape"
   xmlns:sodipodi="http://sodipodi.sourceforge.net/DTD/sodipodi-0.dtd"
   xmlns="http://www.w3.org/2000/svg"
   xmlns:svg="http://www.w3.org/2000/svg">
  <sodipodi:namedview
     id="namedview1"
     pagecolor="#ffffff"
     bordercolor="#000000"
     borderopacity="0.25"
     inkscape:showpageshadow="2"
     inkscape:pageopacity="0.0"
     inkscape:pagecheckerboard="0"
     inkscape:deskcolor="#d1d1d1"
     inkscape:document-units="mm"
     inkscape:zoom="0.69219276"
     inkscape:cx="397.28818"
     inkscape:cy="617.60253"
     inkscape:window-width="1920"
     inkscape:window-height="991"
     inkscape:window-x="-9"
     inkscape:window-y="1341"
     inkscape:window-maximized="1"
     inkscape:current-layer="layer1" />
  <defs
     id="defs1" />
  <g
     inkscape:label="Calque 1"
     inkscape:groupmode="layer"
     id="layer1">
    <path
       id="FR-HDF"
       title="Hauts-de-France"
       class="land"
       d="m 200.78609,148.14739 6.80908,-5.59572 -2.18601,-7.16817 -5.19482,-0.0763 5.78923,-15.62799 -3.34348,-1.93152 -1.78681,3.52309 -8.18617,-11.4146 -8.873,3.6207 -11.18802,-2.7369 -2.86583,5.21221 -3.60322,-7.29537 0.1152,-9.817812 -3.77065,-4.467896 -7.8166,0.997115 1.31793,-4.119231 -3.19185,-1.08949 -7.14198,4.767671 -6.11524,-3.76877 -3.77755,-15.176568 1.548,-4.966436 -5.01527,-2.6776 -2.89547,-7.394728 -14.35719,4.349375 -3.33653,6.817706 -8.45989,-3.944915 -4.797343,-9.561554 -6.340106,-0.240501 -2.585235,-4.251712 -0.671098,-8.018814 3.010575,-3.172655 -6.376741,-16.269505 -57.888898,16.612917 -6.049002,6.674803 -5.803187,1.703144 2.351606,7.703259 -3.690402,8.878223 0.997125,17.836657 0.746096,3.521326 -2.337659,15.624501 5.07278,3.79152 -4.985621,0.61206 -1.309158,8.91828 10.94046,10.62844 -11.984648,-2.10754 -10.4785025,16.06724 v 0 l 5.1529606,-0.65224 0.2527373,3.42716 18.7884506,17.13064 5.346475,13.90567 -2.654923,-0.11126 -4.363306,7.64747 h 4.521957 l -3.915316,5.64284 -0.07149,6.8927 3.784532,4.9281 -2.243522,3.82463 5.274983,0.0138 -5.527752,10.70165 6.505704,14.75283 -1.079086,3.15006 -2.257436,-2.90771 -3.5248,0.85239 -0.404405,3.64684 v 0 l 3.669483,6.20762 5.839837,1.24642 12.063059,-1.27958 5.724802,-3.80889 6.484789,5.16693 3.46722,-1.74499 1.040732,3.10117 5.841538,-3.88567 12.779575,8.80509 4.493983,-2.00819 2.243519,4.91586 3.582367,-3.15 7.309324,5.22097 5.384837,-3.94318 3.15518,2.90766 8.45986,-2.34638 1.35973,2.25922 5.71953,-1.55319 0.24379,-3.50564 4.95073,1.20287 3.76188,6.16746 -1.69096,4.17155 7.04088,8.06942 2.90245,-1.08778 1.73626,4.45913 2.7996,-2.21739 1.10873,6.19194 5.65845,3.76014 1.74326,-1.61076 v 0 l 13.93874,-17.78435 -1.96106,-3.17964 -4.7381,0.68159 3.83506,-4.42599 -2.70025,-4.67359 1.54976,-3.39754 9.14671,-0.93786 -6.83868,-5.94962 -0.62393,-11.14616 9.59644,-4.73983 5.31335,1.27252 0.31887,-3.92222 4.94201,-2.93731 8.17046,5.15467 2.99663,-23.45155 -3.93794,-5.66723 6.62947,-1.23592 0.81059,-5.01699 8.94619,-8.81721 -3.17093,-2.56952 3.41497,-9.87884 -1.54099,-10.14209 v 0 l -2.62003,0.29122 z"
       style="fill:#cccccc;fill-opacity:1;stroke:#ffffff;stroke-width:0.871612;stroke-opacity:1" />
  </g>
</svg>
