<svg xmlns="http://www.w3.org/2000/svg" xmlns:xlink="http://www.w3.org/1999/xlink" viewBox="0 0 594.98 473.73"><defs><style>.cls-1{fill:#083868;stroke:#fff;stroke-miterlimit:11.34;stroke-width:3.37px;}.cls-11,.cls-16,.cls-19,.cls-2,.cls-22,.cls-25,.cls-28,.cls-31,.cls-34,.cls-37,.cls-41,.cls-44,.cls-46,.cls-50,.cls-53,.cls-56,.cls-60,.cls-63,.cls-7{stroke-miterlimit:10;}.cls-2{fill:url(#Dégradé_sans_nom_2);stroke:url(#Dégradé_sans_nom_5);}.cls-3{fill:url(#Dégradé_sans_nom_3);}.cls-4{fill:url(#Dégradé_sans_nom_4);}.cls-10,.cls-14,.cls-5{font-size:10.92px;fill:#fff;font-family:Lato-Black, Lato;font-weight:800;}.cls-5{letter-spacing:-0.07em;}.cls-6{letter-spacing:0em;}.cls-7{fill:url(#Dégradé_sans_nom_2-2);stroke:url(#Dégradé_sans_nom_5-2);}.cls-8{fill:url(#Dégradé_sans_nom_3-2);}.cls-9{fill:url(#Dégradé_sans_nom_4-2);}.cls-11{fill:url(#Dégradé_sans_nom_2-3);stroke:url(#Dégradé_sans_nom_5-3);}.cls-12{fill:url(#Dégradé_sans_nom_3-3);}.cls-13{fill:url(#Dégradé_sans_nom_4-3);}.cls-14{letter-spacing:-0.01em;}.cls-15{letter-spacing:0em;}.cls-16{fill:url(#Dégradé_sans_nom_2-4);stroke:url(#Dégradé_sans_nom_5-4);}.cls-17{fill:url(#Dégradé_sans_nom_3-4);}.cls-18{fill:url(#Dégradé_sans_nom_4-4);}.cls-19{fill:url(#Dégradé_sans_nom_2-5);stroke:url(#Dégradé_sans_nom_5-5);}.cls-20{fill:url(#Dégradé_sans_nom_3-5);}.cls-21{fill:url(#Dégradé_sans_nom_4-5);}.cls-22{fill:url(#Dégradé_sans_nom_2-6);stroke:url(#Dégradé_sans_nom_5-6);}.cls-23{fill:url(#Dégradé_sans_nom_3-6);}.cls-24{fill:url(#Dégradé_sans_nom_4-6);}.cls-25{fill:url(#Dégradé_sans_nom_2-7);stroke:url(#Dégradé_sans_nom_5-7);}.cls-26{fill:url(#Dégradé_sans_nom_3-7);}.cls-27{fill:url(#Dégradé_sans_nom_4-7);}.cls-28{fill:url(#Dégradé_sans_nom_2-8);stroke:url(#Dégradé_sans_nom_5-8);}.cls-29{fill:url(#Dégradé_sans_nom_3-8);}.cls-30{fill:url(#Dégradé_sans_nom_4-8);}.cls-31{fill:url(#Dégradé_sans_nom_2-9);stroke:url(#Dégradé_sans_nom_5-9);}.cls-32{fill:url(#Dégradé_sans_nom_3-9);}.cls-33{fill:url(#Dégradé_sans_nom_4-9);}.cls-34{fill:url(#Dégradé_sans_nom_2-10);stroke:url(#Dégradé_sans_nom_5-10);}.cls-35{fill:url(#Dégradé_sans_nom_3-10);}.cls-36{fill:url(#Dégradé_sans_nom_4-10);}.cls-37{fill:url(#Dégradé_sans_nom_2-11);stroke:url(#Dégradé_sans_nom_5-11);}.cls-38{fill:url(#Dégradé_sans_nom_3-11);}.cls-39{fill:url(#Dégradé_sans_nom_4-11);}.cls-40{letter-spacing:-0.01em;}.cls-41{fill:url(#Dégradé_sans_nom_2-12);stroke:url(#Dégradé_sans_nom_5-12);}.cls-42{fill:url(#Dégradé_sans_nom_3-12);}.cls-43{fill:url(#Dégradé_sans_nom_4-12);}.cls-44{fill:url(#Dégradé_sans_nom_2-13);stroke:url(#Dégradé_sans_nom_5-13);}.cls-45{fill:url(#Dégradé_sans_nom_3-13);}.cls-46{fill:url(#Dégradé_sans_nom_2-14);stroke:url(#Dégradé_sans_nom_5-14);}.cls-47{fill:url(#Dégradé_sans_nom_3-14);}.cls-48{fill:url(#Dégradé_sans_nom_4-13);}.cls-49{letter-spacing:-0.02em;}.cls-50{fill:url(#Dégradé_sans_nom_2-15);stroke:url(#Dégradé_sans_nom_5-15);}.cls-51{fill:url(#Dégradé_sans_nom_3-15);}.cls-52{fill:url(#Dégradé_sans_nom_4-14);}.cls-53{fill:url(#Dégradé_sans_nom_2-16);stroke:url(#Dégradé_sans_nom_5-16);}.cls-54{fill:url(#Dégradé_sans_nom_3-16);}.cls-55{fill:url(#Dégradé_sans_nom_4-15);}.cls-56{fill:url(#Dégradé_sans_nom_2-17);stroke:url(#Dégradé_sans_nom_5-17);}.cls-57{fill:url(#Dégradé_sans_nom_3-17);}.cls-58{fill:url(#Dégradé_sans_nom_4-16);}.cls-59{letter-spacing:-0.02em;}.cls-60{fill:url(#Dégradé_sans_nom_2-18);stroke:url(#Dégradé_sans_nom_5-18);}.cls-61{fill:url(#Dégradé_sans_nom_3-18);}.cls-62{fill:url(#Dégradé_sans_nom_4-17);}.cls-63{fill:url(#Dégradé_sans_nom_2-19);stroke:url(#Dégradé_sans_nom_5-19);}.cls-64{fill:url(#Dégradé_sans_nom_3-19);}.cls-65{fill:url(#Dégradé_sans_nom_4-18);}</style><linearGradient id="Dégradé_sans_nom_2" x1="791.26" y1="-3217.47" x2="807.09" y2="-3223.87" gradientTransform="translate(-610.91 3537.18)" gradientUnits="userSpaceOnUse"><stop offset="0" stop-color="#4a6a3a"/><stop offset="0.13" stop-color="#5c8449"/><stop offset="0.28" stop-color="#6a9754"/><stop offset="0.44" stop-color="#74a55c"/><stop offset="0.65" stop-color="#79ae61"/><stop offset="1" stop-color="#7bb062"/></linearGradient><linearGradient id="Dégradé_sans_nom_5" x1="789" y1="-3219.92" x2="807.12" y2="-3219.92" gradientTransform="translate(-610.91 3537.18)" gradientUnits="userSpaceOnUse"><stop offset="0" stop-color="#006c9b"/><stop offset="0.03" stop-color="#00719f"/><stop offset="0.19" stop-color="#0084b0"/><stop offset="0.38" stop-color="#0092bc"/><stop offset="0.61" stop-color="#009bc3"/><stop offset="1" stop-color="#009dc5"/></linearGradient><linearGradient id="Dégradé_sans_nom_3" x1="801.83" y1="-3207.42" x2="801.83" y2="-3232.42" gradientTransform="translate(-610.91 3537.18)" gradientUnits="userSpaceOnUse"><stop offset="0" stop-color="#7bb062"/><stop offset="0.21" stop-color="#75a85d"/><stop offset="0.55" stop-color="#669251"/><stop offset="0.95" stop-color="#4d6f3d"/><stop offset="1" stop-color="#4a6a3a"/></linearGradient><linearGradient id="Dégradé_sans_nom_4" x1="795.28" y1="-3219.5" x2="795.28" y2="-3228.32" gradientTransform="translate(-610.91 3537.18)" gradientUnits="userSpaceOnUse"><stop offset="0" stop-color="#7bb062"/><stop offset="0.22" stop-color="#78ab5f"/><stop offset="0.48" stop-color="#6d9d57"/><stop offset="0.76" stop-color="#5d8549"/><stop offset="1" stop-color="#4a6a3a"/></linearGradient><linearGradient id="Dégradé_sans_nom_2-2" x1="989.08" y1="-3297.88" x2="1004.91" y2="-3304.27" xlink:href="#Dégradé_sans_nom_2"/><linearGradient id="Dégradé_sans_nom_5-2" x1="986.82" y1="-3300.33" x2="1004.94" y2="-3300.33" xlink:href="#Dégradé_sans_nom_5"/><linearGradient id="Dégradé_sans_nom_3-2" x1="999.64" y1="-3287.83" x2="999.64" y2="-3312.83" xlink:href="#Dégradé_sans_nom_3"/><linearGradient id="Dégradé_sans_nom_4-2" x1="993.1" y1="-3299.9" x2="993.1" y2="-3308.73" xlink:href="#Dégradé_sans_nom_4"/><linearGradient id="Dégradé_sans_nom_2-3" x1="760.76" y1="-3272.88" x2="776.59" y2="-3279.27" xlink:href="#Dégradé_sans_nom_2"/><linearGradient id="Dégradé_sans_nom_5-3" x1="758.5" y1="-3275.33" x2="776.62" y2="-3275.33" xlink:href="#Dégradé_sans_nom_5"/><linearGradient id="Dégradé_sans_nom_3-3" x1="771.33" y1="-3262.83" x2="771.33" y2="-3287.83" xlink:href="#Dégradé_sans_nom_3"/><linearGradient id="Dégradé_sans_nom_4-3" x1="764.78" y1="-3274.9" x2="764.78" y2="-3283.73" xlink:href="#Dégradé_sans_nom_4"/><linearGradient id="Dégradé_sans_nom_2-4" x1="854.78" y1="-3245.36" x2="870.61" y2="-3251.75" xlink:href="#Dégradé_sans_nom_2"/><linearGradient id="Dégradé_sans_nom_5-4" x1="852.52" y1="-3247.81" x2="870.64" y2="-3247.81" xlink:href="#Dégradé_sans_nom_5"/><linearGradient id="Dégradé_sans_nom_3-4" x1="865.35" y1="-3235.31" x2="865.35" y2="-3260.31" xlink:href="#Dégradé_sans_nom_3"/><linearGradient id="Dégradé_sans_nom_4-4" x1="858.8" y1="-3247.38" x2="858.8" y2="-3256.21" xlink:href="#Dégradé_sans_nom_4"/><linearGradient id="Dégradé_sans_nom_2-5" x1="864.82" y1="-3261.33" x2="880.65" y2="-3267.73" xlink:href="#Dégradé_sans_nom_2"/><linearGradient id="Dégradé_sans_nom_5-5" x1="862.56" y1="-3263.78" x2="880.68" y2="-3263.78" xlink:href="#Dégradé_sans_nom_5"/><linearGradient id="Dégradé_sans_nom_3-5" x1="875.39" y1="-3251.28" x2="875.39" y2="-3276.28" xlink:href="#Dégradé_sans_nom_3"/><linearGradient id="Dégradé_sans_nom_4-5" x1="868.84" y1="-3263.36" x2="868.84" y2="-3272.18" xlink:href="#Dégradé_sans_nom_4"/><linearGradient id="Dégradé_sans_nom_2-6" x1="813.68" y1="-3259.56" x2="829.52" y2="-3265.96" xlink:href="#Dégradé_sans_nom_2"/><linearGradient id="Dégradé_sans_nom_5-6" x1="811.42" y1="-3262.01" x2="829.54" y2="-3262.01" xlink:href="#Dégradé_sans_nom_5"/><linearGradient id="Dégradé_sans_nom_3-6" x1="824.25" y1="-3249.51" x2="824.25" y2="-3274.51" xlink:href="#Dégradé_sans_nom_3"/><linearGradient id="Dégradé_sans_nom_4-6" x1="817.7" y1="-3261.59" x2="817.7" y2="-3270.41" xlink:href="#Dégradé_sans_nom_4"/><linearGradient id="Dégradé_sans_nom_2-7" x1="873.41" y1="-3242.36" x2="889.24" y2="-3248.75" xlink:href="#Dégradé_sans_nom_2"/><linearGradient id="Dégradé_sans_nom_5-7" x1="871.15" y1="-3244.81" x2="889.27" y2="-3244.81" xlink:href="#Dégradé_sans_nom_5"/><linearGradient id="Dégradé_sans_nom_3-7" x1="883.98" y1="-3232.31" x2="883.98" y2="-3257.31" xlink:href="#Dégradé_sans_nom_3"/><linearGradient id="Dégradé_sans_nom_4-7" x1="877.43" y1="-3244.38" x2="877.43" y2="-3253.21" xlink:href="#Dégradé_sans_nom_4"/><linearGradient id="Dégradé_sans_nom_2-8" x1="865.01" y1="-3234.96" x2="880.84" y2="-3241.36" xlink:href="#Dégradé_sans_nom_2"/><linearGradient id="Dégradé_sans_nom_5-8" x1="862.75" y1="-3237.41" x2="880.87" y2="-3237.41" xlink:href="#Dégradé_sans_nom_5"/><linearGradient id="Dégradé_sans_nom_3-8" x1="875.58" y1="-3224.91" x2="875.58" y2="-3249.91" xlink:href="#Dégradé_sans_nom_3"/><linearGradient id="Dégradé_sans_nom_4-8" x1="869.03" y1="-3236.98" x2="869.03" y2="-3245.81" xlink:href="#Dégradé_sans_nom_4"/><linearGradient id="Dégradé_sans_nom_2-9" x1="859.53" y1="-3222.45" x2="875.37" y2="-3228.84" xlink:href="#Dégradé_sans_nom_2"/><linearGradient id="Dégradé_sans_nom_5-9" x1="857.27" y1="-3224.9" x2="875.39" y2="-3224.9" xlink:href="#Dégradé_sans_nom_5"/><linearGradient id="Dégradé_sans_nom_3-9" x1="870.1" y1="-3212.4" x2="870.1" y2="-3237.4" xlink:href="#Dégradé_sans_nom_3"/><linearGradient id="Dégradé_sans_nom_4-9" x1="863.55" y1="-3224.47" x2="863.55" y2="-3233.29" xlink:href="#Dégradé_sans_nom_4"/><linearGradient id="Dégradé_sans_nom_2-10" x1="878.69" y1="-3147.38" x2="894.53" y2="-3153.78" xlink:href="#Dégradé_sans_nom_2"/><linearGradient id="Dégradé_sans_nom_5-10" x1="876.43" y1="-3149.83" x2="894.56" y2="-3149.83" xlink:href="#Dégradé_sans_nom_5"/><linearGradient id="Dégradé_sans_nom_3-10" x1="889.26" y1="-3137.33" x2="889.26" y2="-3162.33" xlink:href="#Dégradé_sans_nom_3"/><linearGradient id="Dégradé_sans_nom_4-10" x1="882.72" y1="-3149.41" x2="882.72" y2="-3158.23" xlink:href="#Dégradé_sans_nom_4"/><linearGradient id="Dégradé_sans_nom_2-11" x1="900.02" y1="-3281.28" x2="915.85" y2="-3287.67" xlink:href="#Dégradé_sans_nom_2"/><linearGradient id="Dégradé_sans_nom_5-11" x1="897.76" y1="-3283.72" x2="915.88" y2="-3283.72" xlink:href="#Dégradé_sans_nom_5"/><linearGradient id="Dégradé_sans_nom_3-11" x1="910.58" y1="-3271.23" x2="910.58" y2="-3296.22" xlink:href="#Dégradé_sans_nom_3"/><linearGradient id="Dégradé_sans_nom_4-11" x1="904.04" y1="-3283.3" x2="904.04" y2="-3292.12" xlink:href="#Dégradé_sans_nom_4"/><linearGradient id="Dégradé_sans_nom_2-12" x1="889.29" y1="-3220.46" x2="905.12" y2="-3226.86" xlink:href="#Dégradé_sans_nom_2"/><linearGradient id="Dégradé_sans_nom_5-12" x1="887.03" y1="-3222.91" x2="905.15" y2="-3222.91" xlink:href="#Dégradé_sans_nom_5"/><linearGradient id="Dégradé_sans_nom_3-12" x1="899.85" y1="-3210.41" x2="899.85" y2="-3235.41" xlink:href="#Dégradé_sans_nom_3"/><linearGradient id="Dégradé_sans_nom_4-12" x1="893.31" y1="-3222.48" x2="893.31" y2="-3231.31" xlink:href="#Dégradé_sans_nom_4"/><linearGradient id="Dégradé_sans_nom_2-13" x1="1070.82" y1="-3217.05" x2="1086.65" y2="-3223.44" xlink:href="#Dégradé_sans_nom_2"/><linearGradient id="Dégradé_sans_nom_5-13" x1="1068.56" y1="-3219.5" x2="1086.68" y2="-3219.5" xlink:href="#Dégradé_sans_nom_5"/><linearGradient id="Dégradé_sans_nom_3-13" x1="1081.39" y1="-3207" x2="1081.39" y2="-3232" xlink:href="#Dégradé_sans_nom_3"/><linearGradient id="Dégradé_sans_nom_2-14" x1="914.12" y1="-3272.06" x2="929.96" y2="-3278.46" xlink:href="#Dégradé_sans_nom_2"/><linearGradient id="Dégradé_sans_nom_5-14" x1="911.86" y1="-3274.51" x2="929.98" y2="-3274.51" xlink:href="#Dégradé_sans_nom_5"/><linearGradient id="Dégradé_sans_nom_3-14" x1="924.69" y1="-3262.01" x2="924.69" y2="-3287.01" xlink:href="#Dégradé_sans_nom_3"/><linearGradient id="Dégradé_sans_nom_4-13" x1="918.14" y1="-3274.09" x2="918.14" y2="-3282.91" xlink:href="#Dégradé_sans_nom_4"/><linearGradient id="Dégradé_sans_nom_2-15" x1="781.08" y1="-3313.48" x2="796.91" y2="-3319.88" xlink:href="#Dégradé_sans_nom_2"/><linearGradient id="Dégradé_sans_nom_5-15" x1="778.82" y1="-3315.93" x2="796.94" y2="-3315.93" xlink:href="#Dégradé_sans_nom_5"/><linearGradient id="Dégradé_sans_nom_3-15" x1="791.64" y1="-3303.43" x2="791.64" y2="-3328.43" xlink:href="#Dégradé_sans_nom_3"/><linearGradient id="Dégradé_sans_nom_4-14" x1="785.1" y1="-3315.51" x2="785.1" y2="-3324.33" xlink:href="#Dégradé_sans_nom_4"/><linearGradient id="Dégradé_sans_nom_2-16" x1="839.38" y1="-3241.95" x2="855.21" y2="-3248.34" xlink:href="#Dégradé_sans_nom_2"/><linearGradient id="Dégradé_sans_nom_5-16" x1="837.12" y1="-3244.4" x2="855.24" y2="-3244.4" xlink:href="#Dégradé_sans_nom_5"/><linearGradient id="Dégradé_sans_nom_3-16" x1="849.95" y1="-3231.9" x2="849.95" y2="-3256.9" xlink:href="#Dégradé_sans_nom_3"/><linearGradient id="Dégradé_sans_nom_4-15" x1="843.4" y1="-3243.97" x2="843.4" y2="-3252.79" xlink:href="#Dégradé_sans_nom_4"/><linearGradient id="Dégradé_sans_nom_2-17" x1="887.29" y1="-3264.48" x2="903.12" y2="-3270.87" xlink:href="#Dégradé_sans_nom_2"/><linearGradient id="Dégradé_sans_nom_5-17" x1="885.03" y1="-3266.93" x2="903.15" y2="-3266.93" xlink:href="#Dégradé_sans_nom_5"/><linearGradient id="Dégradé_sans_nom_3-17" x1="897.85" y1="-3254.43" x2="897.85" y2="-3279.43" xlink:href="#Dégradé_sans_nom_3"/><linearGradient id="Dégradé_sans_nom_4-16" x1="891.31" y1="-3266.5" x2="891.31" y2="-3275.33" xlink:href="#Dégradé_sans_nom_4"/><linearGradient id="Dégradé_sans_nom_2-18" x1="822.28" y1="-3233.96" x2="838.11" y2="-3240.36" xlink:href="#Dégradé_sans_nom_2"/><linearGradient id="Dégradé_sans_nom_5-18" x1="820.01" y1="-3236.41" x2="838.14" y2="-3236.41" xlink:href="#Dégradé_sans_nom_5"/><linearGradient id="Dégradé_sans_nom_3-18" x1="832.84" y1="-3223.91" x2="832.84" y2="-3248.91" xlink:href="#Dégradé_sans_nom_3"/><linearGradient id="Dégradé_sans_nom_4-17" x1="826.3" y1="-3235.98" x2="826.3" y2="-3244.81" xlink:href="#Dégradé_sans_nom_4"/><linearGradient id="Dégradé_sans_nom_2-19" x1="846.43" y1="-3233.54" x2="862.26" y2="-3239.93" xlink:href="#Dégradé_sans_nom_2"/><linearGradient id="Dégradé_sans_nom_5-19" x1="844.17" y1="-3235.98" x2="862.29" y2="-3235.98" xlink:href="#Dégradé_sans_nom_5"/><linearGradient id="Dégradé_sans_nom_3-19" x1="856.99" y1="-3223.48" x2="856.99" y2="-3248.48" xlink:href="#Dégradé_sans_nom_3"/><linearGradient id="Dégradé_sans_nom_4-18" x1="850.45" y1="-3235.56" x2="850.45" y2="-3244.38" xlink:href="#Dégradé_sans_nom_4"/></defs><title>ile-de-france-picto</title><g id="svg1"><g id="layer1"><path id="FR-IDF" class="cls-1" d="M73.73,145.17l14.19,24L110.51,174l46.67-4.95,22.14-14.74,25.09,20,13.41-6.75,4,12,22.6-15,49.43,34.06,17.39-7.77,8.67,19,13.86-12.19,28.28,20.2,20.83-15.26,12.2,11.25,32.73-9.08,5.26,8.74,22.12-6,.95-13.57,19.15,4.66,14.55,23.86-6.54,16.13,27.23,31.22,11.23-4.21,6.72,17.25,10.83-8.58,4.29,23.95,21.89,14.55,6.74-6.23h0l.48,16.2-23.4,2.2,11.19,7.76-13.74,13.5,20.68,8.55-4.84,43.43L586,393.44,593,406l-26.54,19.36,4.51,12.2-20.86,5.77,8.83,15.76-15.29,4.54,8.85,37.83h0L449.76,514.43l-9,22.8,9,23.23-30.85,36.27h0L386,610.62l-5.71-16.28-17.52.84,5,9-13.66,9.16-73.3-.2,20.7-18-.16-24.58-26.12-14.17-5.48-23.48-21.42-7.27-23.16,14.52-11.78-19.14L202.33,540l-53.45,4.41,4.4-31.45-3-16-13.86-1.84.64-21.5-16.91,7-19.09-11L97,433,45.27,386l-1-74L17.11,269.21h0l5-16.24L8.49,254.08l-6.22-33,11.29,1.23,5.91-14.87H51Z" transform="translate(-0.19 -141.25)"/></g></g><g id="versailles"><g id="picto"><path class="cls-2" d="M187.11,304.76h-.46c-5.91.16-9.74,6.68-7.33,12.39l7,12.25a1.28,1.28,0,0,0,1.78,0l7-12.25A9.09,9.09,0,0,0,187.11,304.76Zm-1.05,12.92a4.42,4.42,0,1,1,4.17-4.41,4.29,4.29,0,0,1-4.17,4.41Z" transform="translate(-0.19 -141.25)"/><path class="cls-3" d="M187.71,304.76h-1.06l-.59,0c5.57.56,9.07,6.83,6.74,12.35l-6.52,11.48a.74.74,0,0,0,0,.76h0a1.28,1.28,0,0,0,1.78,0l7-12.25C197.45,311.44,193.62,304.92,187.71,304.76Z" transform="translate(-0.19 -141.25)"/><path class="cls-4" d="M186.06,317.68a3.53,3.53,0,0,0,.79-.08,4.46,4.46,0,0,1,0-8.66,4.23,4.23,0,0,0-.79-.08,4.42,4.42,0,0,0,0,8.82Z" transform="translate(-0.19 -141.25)"/></g><text class="cls-5" transform="translate(133.34 197.65) scale(1.1 1)">V<tspan class="cls-6" x="7.34" y="0">ersailles</tspan></text></g><g id="villepinte"><g id="picto-2" data-name="picto"><path class="cls-7" d="M384.93,224.36h-.46c-5.91.16-9.74,6.67-7.33,12.39l7,12.25a1.31,1.31,0,0,0,1.79,0l7-12.25A9.09,9.09,0,0,0,384.93,224.36Zm-1.05,12.92a4.42,4.42,0,1,1,4.17-4.41,4.3,4.3,0,0,1-4.17,4.41Z" transform="translate(-0.19 -141.25)"/><path class="cls-8" d="M385.52,224.36h-1a5.65,5.65,0,0,0-.59,0c5.57.56,9.07,6.82,6.74,12.35l-6.52,11.47a.74.74,0,0,0,0,.76v0a1.31,1.31,0,0,0,1.79,0l7-12.25C395.27,231,391.43,224.52,385.52,224.36Z" transform="translate(-0.19 -141.25)"/><path class="cls-9" d="M383.88,237.28a4,4,0,0,0,.78-.08,4.47,4.47,0,0,1,0-8.67,4,4,0,0,0-.78-.08,4.42,4.42,0,0,0,0,8.83Z" transform="translate(-0.19 -141.25)"/></g><text class="cls-10" transform="translate(379.52 119.65) scale(1.1 1)">Villepinte</text></g><g id="poissy"><g id="picto-3" data-name="picto"><path class="cls-11" d="M156.61,249.36h-.46c-5.91.16-9.74,6.67-7.33,12.39l7,12.25a1.31,1.31,0,0,0,1.79,0l7-12.25A9.09,9.09,0,0,0,156.61,249.36Zm-1.05,12.92a4.42,4.42,0,1,1,4.17-4.41,4.3,4.3,0,0,1-4.17,4.41Z" transform="translate(-0.19 -141.25)"/><path class="cls-12" d="M157.21,249.36h-1.06a5.85,5.85,0,0,0-.59,0c5.57.56,9.07,6.82,6.74,12.35l-6.52,11.47a.74.74,0,0,0,0,.76v0a1.31,1.31,0,0,0,1.79,0l7-12.25C167,256,163.11,249.52,157.21,249.36Z" transform="translate(-0.19 -141.25)"/><path class="cls-13" d="M155.56,262.28a4,4,0,0,0,.78-.08,4.47,4.47,0,0,1,0-8.67,4,4,0,0,0-.78-.08,4.42,4.42,0,0,0,0,8.83Z" transform="translate(-0.19 -141.25)"/></g><text class="cls-14" transform="translate(119.16 141.5) scale(1.1 1)">P<tspan class="cls-15" x="6.81" y="0">oissy</tspan></text></g><g id="vigie"><g id="picto-4" data-name="picto"><path class="cls-16" d="M250.63,276.88h-.45c-5.91.15-9.75,6.67-7.34,12.39l7,12.25a1.31,1.31,0,0,0,1.79,0l7-12.25A9.08,9.08,0,0,0,250.63,276.88Zm-1,12.92a4.42,4.42,0,1,1,4.17-4.42,4.29,4.29,0,0,1-4.17,4.42Z" transform="translate(-0.19 -141.25)"/><path class="cls-17" d="M251.23,276.88h-1q-.3,0-.6,0c5.57.56,9.07,6.83,6.75,12.36l-6.53,11.47a.79.79,0,0,0,0,.76v0a1.31,1.31,0,0,0,1.79,0l7-12.25C261,283.55,257.14,277,251.23,276.88Z" transform="translate(-0.19 -141.25)"/><path class="cls-18" d="M249.58,289.8a4.15,4.15,0,0,0,.79-.08,4.47,4.47,0,0,1,0-8.67,4.15,4.15,0,0,0-.79-.08,4.42,4.42,0,0,0,0,8.83Z" transform="translate(-0.19 -141.25)"/></g></g><g id="saint-ouen"><g id="picto-5" data-name="picto"><path class="cls-19" d="M260.67,260.9h-.46c-5.91.16-9.74,6.68-7.33,12.39l7,12.25a1.29,1.29,0,0,0,1.79,0l7-12.25A9.09,9.09,0,0,0,260.67,260.9Zm-1.05,12.92a4.42,4.42,0,1,1,4.17-4.41,4.29,4.29,0,0,1-4.17,4.41Z" transform="translate(-0.19 -141.25)"/><path class="cls-20" d="M261.26,260.9h-1.05l-.59,0c5.57.56,9.07,6.83,6.74,12.35l-6.52,11.48a.74.74,0,0,0,0,.76h0a1.29,1.29,0,0,0,1.79,0l7-12.25C271,267.58,267.17,261.06,261.26,260.9Z" transform="translate(-0.19 -141.25)"/><path class="cls-21" d="M259.62,273.82a3.39,3.39,0,0,0,.78-.08,4.46,4.46,0,0,1,0-8.66,4,4,0,0,0-.78-.08,4.42,4.42,0,0,0,0,8.82Z" transform="translate(-0.19 -141.25)"/></g><text class="cls-10" transform="translate(226.53 116.5) scale(1.1 1)">St Ouen</text></g><g id="nanterre"><g id="picto-6" data-name="picto"><path class="cls-22" d="M209.53,262.67h-.45c-5.91.16-9.74,6.68-7.34,12.39l7,12.25a1.29,1.29,0,0,0,1.79,0l7-12.25A9.1,9.1,0,0,0,209.53,262.67Zm-1,12.92a4.42,4.42,0,1,1,4.16-4.41,4.29,4.29,0,0,1-4.16,4.41Z" transform="translate(-0.19 -141.25)"/><path class="cls-23" d="M210.13,262.67h-1l-.59,0c5.56.56,9.06,6.83,6.74,12.35l-6.53,11.48a.79.79,0,0,0,0,.76h0a1.29,1.29,0,0,0,1.79,0l7-12.25C219.87,269.35,216,262.83,210.13,262.67Z" transform="translate(-0.19 -141.25)"/><path class="cls-24" d="M208.49,275.59a4.11,4.11,0,0,0,.78-.07,4.47,4.47,0,0,1,0-8.67,4.13,4.13,0,0,0-.78-.08,4.42,4.42,0,0,0,0,8.82Z" transform="translate(-0.19 -141.25)"/></g><text class="cls-10" transform="translate(155.37 151.12) scale(1.1 1)">Nanterre</text></g><g id="mont-cenis"><g id="picto-7" data-name="picto"><path class="cls-25" d="M269.26,279.88h-.46c-5.9.15-9.74,6.67-7.33,12.39l7,12.25a1.3,1.3,0,0,0,1.78,0l7-12.25A9.08,9.08,0,0,0,269.26,279.88Zm-1.05,12.92a4.42,4.42,0,1,1,4.17-4.42,4.29,4.29,0,0,1-4.17,4.42Z" transform="translate(-0.19 -141.25)"/><path class="cls-26" d="M269.86,279.88H268.8a5.83,5.83,0,0,0-.59,0c5.57.56,9.07,6.83,6.75,12.36l-6.53,11.47a.79.79,0,0,0,0,.76v0a1.3,1.3,0,0,0,1.78,0l7-12.25C279.6,286.55,275.77,280,269.86,279.88Z" transform="translate(-0.19 -141.25)"/><path class="cls-27" d="M268.21,292.8a4.15,4.15,0,0,0,.79-.08,4.47,4.47,0,0,1,0-8.67,4.15,4.15,0,0,0-.79-.08,4.42,4.42,0,0,0,0,8.83Z" transform="translate(-0.19 -141.25)"/></g></g><g id="charonne"><g id="picto-8" data-name="picto"><path class="cls-28" d="M260.86,287.28h-.46c-5.91.15-9.74,6.67-7.33,12.39l7,12.25a1.31,1.31,0,0,0,1.79,0l7-12.25A9.08,9.08,0,0,0,260.86,287.28Zm-1.05,12.92a4.42,4.42,0,1,1,4.17-4.42,4.3,4.3,0,0,1-4.17,4.42Z" transform="translate(-0.19 -141.25)"/><path class="cls-29" d="M261.45,287.28H260.4a5.83,5.83,0,0,0-.59,0c5.57.56,9.07,6.83,6.74,12.36L260,311.14a.74.74,0,0,0,0,.76v0a1.31,1.31,0,0,0,1.79,0l7-12.26C271.2,294,267.36,287.43,261.45,287.28Z" transform="translate(-0.19 -141.25)"/><path class="cls-30" d="M259.81,300.2a4,4,0,0,0,.78-.08,4.47,4.47,0,0,1,0-8.67,4,4,0,0,0-.78-.08,4.42,4.42,0,0,0,0,8.83Z" transform="translate(-0.19 -141.25)"/></g></g><g id="gentilly"><g id="picto-9" data-name="picto"><path class="cls-31" d="M255.38,299.79h-.45c-5.91.16-9.74,6.67-7.34,12.39l7,12.25a1.31,1.31,0,0,0,1.79,0l7-12.25A9.09,9.09,0,0,0,255.38,299.79Zm-1,12.92a4.42,4.42,0,1,1,4.16-4.41,4.29,4.29,0,0,1-4.16,4.41Z" transform="translate(-0.19 -141.25)"/><path class="cls-32" d="M256,299.79h-1a5.65,5.65,0,0,0-.59,0c5.56.56,9.06,6.82,6.74,12.35l-6.53,11.47a.79.79,0,0,0,0,.76v0a1.31,1.31,0,0,0,1.79,0l7-12.25C265.72,306.46,261.89,300,256,299.79Z" transform="translate(-0.19 -141.25)"/><path class="cls-33" d="M254.34,312.71a4.13,4.13,0,0,0,.78-.08,4.47,4.47,0,0,1,0-8.67,4.11,4.11,0,0,0-.78-.07,4.42,4.42,0,0,0,0,8.82Z" transform="translate(-0.19 -141.25)"/></g><text class="cls-10" transform="translate(233.56 194.3) scale(1.1 1)">Gentilly</text></g><g id="evry"><g id="picto-10" data-name="picto"><path class="cls-34" d="M274.55,374.85h-.46c-5.91.16-9.74,6.68-7.34,12.39l7,12.25a1.29,1.29,0,0,0,1.79,0l7-12.25A9.09,9.09,0,0,0,274.55,374.85Zm-1.05,12.92a4.42,4.42,0,1,1,4.16-4.41,4.29,4.29,0,0,1-4.16,4.41Z" transform="translate(-0.19 -141.25)"/><path class="cls-35" d="M275.14,374.85h-1.05l-.59,0c5.57.56,9.06,6.83,6.74,12.35l-6.53,11.48a.79.79,0,0,0,0,.76h0a1.29,1.29,0,0,0,1.79,0l7-12.25C284.88,381.53,281.05,375,275.14,374.85Z" transform="translate(-0.19 -141.25)"/><path class="cls-36" d="M273.5,387.77a4.11,4.11,0,0,0,.78-.07,4.47,4.47,0,0,1,0-8.67,4.13,4.13,0,0,0-.78-.08,4.42,4.42,0,0,0,0,8.82Z" transform="translate(-0.19 -141.25)"/></g></g><g id="drancy"><g id="picto-11" data-name="picto"><path class="cls-37" d="M295.87,241h-.46c-5.91.16-9.74,6.67-7.33,12.39l7,12.25a1.31,1.31,0,0,0,1.79,0l7-12.25A9.09,9.09,0,0,0,295.87,241Zm-1.05,12.92a4.42,4.42,0,1,1,4.17-4.41,4.3,4.3,0,0,1-4.17,4.41Z" transform="translate(-0.19 -141.25)"/><path class="cls-38" d="M296.46,241h-1a5.65,5.65,0,0,0-.59,0c5.57.56,9.07,6.82,6.74,12.35L295,264.82a.74.74,0,0,0,0,.76v0a1.31,1.31,0,0,0,1.79,0l7-12.25C306.21,247.63,302.37,241.12,296.46,241Z" transform="translate(-0.19 -141.25)"/><path class="cls-39" d="M294.82,253.88a4,4,0,0,0,.78-.08,4.47,4.47,0,0,1,0-8.67,4,4,0,0,0-.78-.07,4.42,4.42,0,0,0,0,8.82Z" transform="translate(-0.19 -141.25)"/></g><text class="cls-10" transform="translate(278.16 97.93) scale(1.1 1)">D<tspan class="cls-40" x="8.11" y="0">r</tspan><tspan x="12.51" y="0">ancy</tspan></text></g><g id="creteil"><g id="picto-12" data-name="picto"><path class="cls-41" d="M285.14,301.78h-.46c-5.91.15-9.74,6.67-7.34,12.39l7,12.25a1.31,1.31,0,0,0,1.79,0l7-12.25A9.08,9.08,0,0,0,285.14,301.78Zm-1.05,12.92a4.42,4.42,0,1,1,4.16-4.42,4.3,4.3,0,0,1-4.16,4.42Z" transform="translate(-0.19 -141.25)"/><path class="cls-42" d="M285.73,301.78h-1.05a5.68,5.68,0,0,0-.59,0c5.57.56,9.07,6.83,6.74,12.36l-6.53,11.47a.79.79,0,0,0,0,.76v0a1.31,1.31,0,0,0,1.79,0l7-12.26C295.48,308.45,291.64,301.93,285.73,301.78Z" transform="translate(-0.19 -141.25)"/><path class="cls-43" d="M284.09,314.7a4.13,4.13,0,0,0,.78-.08,4.47,4.47,0,0,1,0-8.67,4.13,4.13,0,0,0-.78-.08,4.42,4.42,0,0,0,0,8.83Z" transform="translate(-0.19 -141.25)"/></g><text class="cls-10" transform="translate(281.2 197.65) scale(1.1 1)">Créteil</text></g><g id="coulommiers"><g id="picto-13" data-name="picto"><path class="cls-44" d="M466.67,305.19h-.46c-5.9.15-9.74,6.67-7.33,12.39l7,12.25a1.3,1.3,0,0,0,1.78,0l7-12.25A9.08,9.08,0,0,0,466.67,305.19Zm-1.05,12.92a4.42,4.42,0,1,1,4.17-4.42,4.29,4.29,0,0,1-4.17,4.42Z" transform="translate(-0.19 -141.25)"/><path class="cls-45" d="M467.27,305.19h-1.06a5.83,5.83,0,0,0-.59,0c5.57.57,9.07,6.83,6.75,12.36l-6.53,11.47a.79.79,0,0,0,0,.76v0a1.3,1.3,0,0,0,1.78,0l7-12.25C477,311.86,473.18,305.34,467.27,305.19Z" transform="translate(-0.19 -141.25)"/><text x="-0.19" y="-141.25"/></g><text class="cls-10" transform="translate(437.23 199.6) scale(1.1 1)">Coulommiers</text></g><g id="clichy"><g id="picto-14" data-name="picto"><path class="cls-46" d="M310,250.17h-.45c-5.91.16-9.74,6.68-7.34,12.39l7,12.25a1.29,1.29,0,0,0,1.79,0l7-12.25A9.1,9.1,0,0,0,310,250.17Zm-1,12.92a4.42,4.42,0,1,1,4.16-4.41,4.29,4.29,0,0,1-4.16,4.41Z" transform="translate(-0.19 -141.25)"/><path class="cls-47" d="M310.57,250.17h-1.05l-.59,0c5.56.56,9.06,6.83,6.74,12.35L309.14,274a.79.79,0,0,0,0,.76h0a1.29,1.29,0,0,0,1.79,0l7-12.25C320.31,256.85,316.48,250.33,310.57,250.17Z" transform="translate(-0.19 -141.25)"/><path class="cls-48" d="M308.93,263.09a4.11,4.11,0,0,0,.78-.07,4.47,4.47,0,0,1,0-8.67,4.13,4.13,0,0,0-.78-.08,4.42,4.42,0,0,0,0,8.82Z" transform="translate(-0.19 -141.25)"/></g><text class="cls-10" transform="translate(308.73 144.65) scale(1.1 1)">Clic<tspan class="cls-49" x="18.71" y="0">h</tspan><tspan class="cls-6" x="24.83" y="0">y</tspan></text></g><g id="cergy"><g id="picto-15" data-name="picto"><path class="cls-50" d="M176.93,208.75h-.46c-5.91.16-9.74,6.68-7.33,12.39l7,12.25a1.29,1.29,0,0,0,1.79,0l7-12.25A9.09,9.09,0,0,0,176.93,208.75Zm-1.05,12.92a4.42,4.42,0,1,1,4.17-4.41,4.29,4.29,0,0,1-4.17,4.41Z" transform="translate(-0.19 -141.25)"/><path class="cls-51" d="M177.52,208.75h-1.05l-.59,0c5.57.56,9.07,6.83,6.74,12.35l-6.52,11.48a.74.74,0,0,0,0,.76h0a1.29,1.29,0,0,0,1.79,0l7-12.25C187.27,215.43,183.43,208.91,177.52,208.75Z" transform="translate(-0.19 -141.25)"/><path class="cls-52" d="M175.88,221.67a3.44,3.44,0,0,0,.78-.08,4.46,4.46,0,0,1,0-8.66,4.13,4.13,0,0,0-.78-.08,4.42,4.42,0,0,0,0,8.82Z" transform="translate(-0.19 -141.25)"/></g><text class="cls-10" transform="translate(139.34 97.93) scale(1.1 1)">Cergy</text></g><g id="boucry"><g id="picto-16" data-name="picto"><path class="cls-53" d="M235.23,280.29h-.46c-5.91.16-9.74,6.67-7.33,12.39l7,12.25a1.3,1.3,0,0,0,1.78,0l7-12.25A9.09,9.09,0,0,0,235.23,280.29Zm-1,12.92a4.42,4.42,0,1,1,4.17-4.41,4.3,4.3,0,0,1-4.17,4.41Z" transform="translate(-0.19 -141.25)"/><path class="cls-54" d="M235.83,280.29h-1.06a5.85,5.85,0,0,0-.59,0c5.57.56,9.07,6.82,6.74,12.35l-6.52,11.47a.74.74,0,0,0,0,.76v0a1.3,1.3,0,0,0,1.78,0l7-12.25C245.57,287,241.74,280.45,235.83,280.29Z" transform="translate(-0.19 -141.25)"/><path class="cls-55" d="M234.18,293.21a4.23,4.23,0,0,0,.79-.08,4.47,4.47,0,0,1,0-8.67,4.22,4.22,0,0,0-.79-.07,4.42,4.42,0,0,0,0,8.82Z" transform="translate(-0.19 -141.25)"/></g></g><g id="bobigny"><g id="picto-17" data-name="picto"><path class="cls-56" d="M283.14,257.76h-.46c-5.91.15-9.74,6.67-7.34,12.39l7,12.25a1.31,1.31,0,0,0,1.79,0l7-12.25A9.08,9.08,0,0,0,283.14,257.76Zm-1.05,12.92a4.42,4.42,0,1,1,4.16-4.42,4.3,4.3,0,0,1-4.16,4.42Z" transform="translate(-0.19 -141.25)"/><path class="cls-57" d="M283.73,257.76h-1.05a5.68,5.68,0,0,0-.59,0c5.57.56,9.07,6.83,6.74,12.36l-6.53,11.47a.79.79,0,0,0,0,.76v0a1.31,1.31,0,0,0,1.79,0l7-12.25C293.48,264.43,289.64,257.91,283.73,257.76Z" transform="translate(-0.19 -141.25)"/><path class="cls-58" d="M282.09,270.68a4.13,4.13,0,0,0,.78-.08,4.47,4.47,0,0,1,0-8.67,4.13,4.13,0,0,0-.78-.08,4.42,4.42,0,0,0,0,8.83Z" transform="translate(-0.19 -141.25)"/></g><text class="cls-10" transform="translate(281.89 155.53) scale(1.1 1)">Bobig<tspan class="cls-59" x="28.66" y="0">n</tspan><tspan x="34.78" y="0">y</tspan></text></g><g id="boulogne"><g id="picto-18" data-name="picto"><path class="cls-60" d="M218.13,288.28h-.46c-5.91.15-9.74,6.67-7.34,12.39l7,12.25a1.31,1.31,0,0,0,1.79,0l7-12.25A9.09,9.09,0,0,0,218.13,288.28Zm-1,12.92a4.42,4.42,0,1,1,4.16-4.42,4.3,4.3,0,0,1-4.16,4.42Z" transform="translate(-0.19 -141.25)"/><path class="cls-61" d="M218.72,288.28h-1.05a5.68,5.68,0,0,0-.59,0c5.57.56,9.07,6.83,6.74,12.36l-6.53,11.47a.79.79,0,0,0,0,.76v0a1.31,1.31,0,0,0,1.79,0l7-12.26C228.46,295,224.63,288.43,218.72,288.28Z" transform="translate(-0.19 -141.25)"/><path class="cls-62" d="M217.08,301.2a4.13,4.13,0,0,0,.78-.08,4.47,4.47,0,0,1,0-8.67,4.13,4.13,0,0,0-.78-.08,4.42,4.42,0,0,0,0,8.83Z" transform="translate(-0.19 -141.25)"/></g><text class="cls-10" transform="translate(195.82 180.53) scale(1.1 1)">Boulogne</text></g><g id="reunion"><g id="picto-19" data-name="picto"><path class="cls-63" d="M242.28,288.7h-.46c-5.91.16-9.74,6.67-7.33,12.39l7,12.25a1.31,1.31,0,0,0,1.79,0l7-12.25A9.09,9.09,0,0,0,242.28,288.7Zm-1.05,12.92a4.42,4.42,0,1,1,4.17-4.41,4.3,4.3,0,0,1-4.17,4.41Z" transform="translate(-0.19 -141.25)"/><path class="cls-64" d="M242.87,288.7h-1.05a5.65,5.65,0,0,0-.59,0c5.57.56,9.07,6.83,6.74,12.35l-6.52,11.47a.74.74,0,0,0,0,.76v0a1.31,1.31,0,0,0,1.79,0l7-12.25C252.62,295.37,248.78,288.86,242.87,288.7Z" transform="translate(-0.19 -141.25)"/><path class="cls-65" d="M241.23,301.62a4.13,4.13,0,0,0,.78-.08,4.47,4.47,0,0,1,0-8.67,4,4,0,0,0-.78-.07,4.42,4.42,0,0,0,0,8.82Z" transform="translate(-0.19 -141.25)"/></g></g></svg>