<?xml version="1.0" encoding="utf-8"?>
<!-- Generator: Adobe Illustrator 24.0.0, SVG Export Plug-In . SVG Version: 6.00 Build 0)  -->
<svg version="1.1" xmlns="http://www.w3.org/2000/svg" xmlns:xlink="http://www.w3.org/1999/xlink" x="0px" y="0px"
	 viewBox="0 0 200 200" style="enable-background:new 0 0 200 200;" xml:space="preserve">
<style type="text/css">
	.st0{fill:#FFFFFF;}
	.st1{display:none;}
	.st2{display:inline;}
</style>
<g id="Calque_3">
</g>
<g id="Calque_5">
</g>
<g id="Calque_4">
	<g>
		<path class="st0" d="M118.4,74.4c0-12.2-5.7-18.1-17.8-18.2c-12.2,0-18.1,5.8-18.1,17.9c0,12.2,5.8,18.1,17.8,18.2
			C112.5,92.3,118.3,86.5,118.4,74.4z"/>
		<path class="st0" d="M72.4,73.9c0-18.1,9.7-27.7,28.1-27.7c17.6,0,27,10.4,28.2,28.1c0.9,14.4-12.8,29.3-28.6,28.2
			C82.6,101.3,72.4,91.8,72.4,73.9z"/>
		<path class="st0" d="M36.5,72.1c-2.7-30,17.7-58.2,47.7-64.6c40.7-8.8,78.6,15.7,80.4,59c1.3,30.8-11.5,56.7-26,82.1
			c-8.5,15-19.1,28.8-28.9,43c-5.9,8.5-12,9.2-17.3,1.4c-14.1-20.8-28.9-41.2-40.7-63.2C42.2,112.1,34.5,92.8,36.5,72.1z
			 M99.8,186.1c3-3.7,5-5.7,6.6-8.1c9.3-14.1,19.2-28,27.6-42.6c12-20.8,20.8-42.6,20.5-67.4c-0.4-33.6-32.4-60-67.8-50.5
			c-33.8,9.1-44.8,36.3-39.5,68.2c3.7,22.5,14.2,42.5,25.9,61.7C81,160.3,90.3,172.4,99.8,186.1z"/>
	</g>
</g>
<g id="LOCATION" class="st1">
	<g class="st2">
		<path d="M99.8,186.1c-9.5-13.6-18.8-25.8-26.7-38.7c-11.7-19.2-22.2-39.2-25.9-61.7c-5.2-31.9,5.7-59.1,39.5-68.2
			c35.4-9.5,67.4,16.8,67.8,50.5c0.3,24.8-8.5,46.7-20.5,67.4c-8.5,14.6-18.3,28.5-27.6,42.6C104.8,180.3,102.8,182.4,99.8,186.1z
			 M72.4,73.9c0,17.9,10.2,27.4,27.6,28.6c15.8,1.1,29.6-13.7,28.6-28.2c-1.1-17.7-10.5-28.1-28.2-28.1
			C82.1,46.2,72.4,55.8,72.4,73.9z"/>
		<path d="M118.4,74.4c0,12.1-5.9,17.9-18.1,17.9c-12.1,0-17.9-6-17.8-18.2c0-12.1,5.9-17.9,18.1-17.9
			C112.6,56.2,118.4,62.1,118.4,74.4z"/>
	</g>
</g>
<g id="Calque_1" class="st1">
</g>
</svg>
